# Blender 5.2.0 LTS
# www.blender.org
mtllib aug mag2.mtl
o RenderMesh_18687756555
v 1.610430 13.231606 0.158920
v 1.719031 13.077369 -0.085787
v 1.719687 13.066561 0.256189
v 1.610166 13.235929 0.022128
v 1.719013 13.000387 -0.053989
v 1.719538 12.991742 0.219593
v 1.636287 12.416340 -0.072288
v 1.636813 12.407694 0.201293
v 1.633644 12.358759 -0.074103
v 1.634168 12.350113 0.199479
v 1.625789 12.302176 -0.075876
v 1.626315 12.293529 0.197706
v 1.519520 13.231700 0.159098
v 1.628122 13.077464 -0.085610
v 1.519257 13.236024 0.022306
v 1.628779 13.066656 0.256367
v 1.628104 13.000483 -0.053810
v 1.628629 12.991837 0.219770
v 1.545377 12.416434 -0.072110
v 1.545901 12.407788 0.201471
v 1.542733 12.358854 -0.073925
v 1.543259 12.350207 0.199656
v 1.534878 12.302270 -0.075698
v 1.535403 12.293624 0.197883
v 1.543259 12.350207 0.199656
v 1.634168 12.350113 0.199479
v 1.626315 12.293529 0.197706
v 1.545901 12.407788 0.201471
v 1.535403 12.293624 0.197883
v 1.636813 12.407694 0.201293
v 1.625789 12.302176 -0.075876
v 1.628629 12.991837 0.219770
v 1.534878 12.302270 -0.075698
v 1.719538 12.991742 0.219593
v 1.542733 12.358854 -0.073925
v 1.628779 13.066656 0.256367
v 1.633644 12.358759 -0.074103
v 1.719687 13.066561 0.256189
v 1.545377 12.416434 -0.072110
v 1.610430 13.231606 0.158920
v 1.636287 12.416340 -0.072288
v 1.519520 13.231700 0.159098
v 1.628104 13.000483 -0.053810
v 1.519257 13.236024 0.022306
v 1.719013 13.000387 -0.053989
v 1.610166 13.235929 0.022128
v 1.719031 13.077369 -0.085787
v 1.628122 13.077464 -0.085610
vn 0.8294 0.5585 0.0161
vn 0.9589 0.2835 0.0071
vn 0.8293 0.5585 0.0160
vn 0.9980 -0.0624 -0.0039
vn 0.9957 -0.0930 -0.0049
vn 0.9958 -0.0916 -0.0048
vn 0.9905 -0.1373 -0.0062
vn -0.8294 -0.5585 -0.0161
vn -0.9589 -0.2835 -0.0071
vn -0.9980 0.0624 0.0039
vn -0.9957 0.0930 0.0048
vn -0.9958 0.0916 0.0048
vn -0.9905 0.1373 0.0062
vn 0.0019 -0.0316 0.9995
vn 0.0007 -0.6999 0.7142
vn 0.0005 -0.7594 0.6506
vn -0.0022 -0.6534 -0.7570
vn 0.0017 -0.2320 0.9727
vn -0.0021 -0.7169 -0.6972
vn 0.0016 -0.2505 0.9681
vn -0.0019 0.0316 -0.9995
vn 0.0021 0.1153 0.9933
vn 0.0019 -0.0666 0.9978
vn 0.0020 0.8185 0.5745
vn 0.0018 0.9106 0.4133
vn -0.0021 -0.1701 -0.9854
vn 0.0003 0.9349 -0.3550
vn -0.0021 -0.1889 -0.9820
vn -0.0001 0.8532 -0.5217
vn -0.0020 -0.0035 -1.0000
vn -0.0017 0.1779 -0.9841
vt 0.000000 0.000000
s 1
usemtl Meshpart5Mtl.004
f 1/1/1 3/1/2 2/1/2
f 2/1/2 4/1/3 1/1/1
f 3/1/2 5/1/4 2/1/2
f 5/1/4 3/1/2 6/1/4
f 5/1/4 6/1/4 7/1/5
f 8/1/5 7/1/5 6/1/4
f 8/1/5 9/1/6 7/1/5
f 9/1/6 8/1/5 10/1/6
f 10/1/6 11/1/7 9/1/6
f 11/1/7 10/1/6 12/1/7
f 13/1/8 15/1/8 14/1/9
f 14/1/9 16/1/9 13/1/8
f 14/1/9 17/1/10 16/1/9
f 17/1/10 18/1/10 16/1/9
f 18/1/10 17/1/10 19/1/11
f 18/1/10 19/1/11 20/1/11
f 20/1/11 19/1/11 21/1/12
f 21/1/12 22/1/12 20/1/11
f 22/1/12 21/1/12 23/1/13
f 24/1/13 22/1/12 23/1/13
f 25/1/14 27/1/15 26/1/14
f 28/1/14 25/1/14 26/1/14
f 25/1/14 29/1/16 27/1/15
f 28/1/14 26/1/14 30/1/14
f 27/1/15 29/1/16 31/1/17
f 30/1/14 32/1/18 28/1/14
f 29/1/16 33/1/19 31/1/17
f 34/1/20 32/1/18 30/1/14
f 31/1/17 33/1/19 35/1/21
f 36/1/22 32/1/18 34/1/20
f 35/1/21 37/1/21 31/1/17
f 36/1/22 34/1/20 38/1/23
f 37/1/21 35/1/21 39/1/21
f 36/1/22 38/1/23 40/1/24
f 39/1/21 41/1/21 37/1/21
f 40/1/24 42/1/25 36/1/22
f 41/1/21 39/1/21 43/1/26
f 42/1/25 40/1/24 44/1/27
f 43/1/26 45/1/28 41/1/21
f 40/1/24 46/1/29 44/1/27
f 43/1/26 47/1/30 45/1/28
f 44/1/27 46/1/29 48/1/31
f 43/1/26 48/1/31 47/1/30
f 47/1/30 48/1/31 46/1/29
o RenderMesh_18687756555.001
v 1.610430 13.231606 -0.624286
v 1.719031 13.077369 -0.868993
v 1.719687 13.066561 -0.527017
v 1.610166 13.235929 -0.761078
v 1.719013 13.000387 -0.837195
v 1.719538 12.991742 -0.563613
v 1.636287 12.416340 -0.855494
v 1.636813 12.407694 -0.581913
v 1.633644 12.358759 -0.857309
v 1.634168 12.350113 -0.583727
v 1.625789 12.302176 -0.859082
v 1.626315 12.293529 -0.585500
v 1.519520 13.231700 -0.624108
v 1.628122 13.077464 -0.868816
v 1.519257 13.236024 -0.760900
v 1.628779 13.066656 -0.526839
v 1.628104 13.000483 -0.837016
v 1.628629 12.991837 -0.563436
v 1.545377 12.416434 -0.855316
v 1.545901 12.407788 -0.581735
v 1.542733 12.358854 -0.857131
v 1.543259 12.350207 -0.583550
v 1.534878 12.302270 -0.858904
v 1.535403 12.293624 -0.585323
v 1.543259 12.350207 -0.583550
v 1.634168 12.350113 -0.583727
v 1.626315 12.293529 -0.585500
v 1.545901 12.407788 -0.581735
v 1.535403 12.293624 -0.585323
v 1.636813 12.407694 -0.581913
v 1.625789 12.302176 -0.859082
v 1.628629 12.991837 -0.563436
v 1.534878 12.302270 -0.858904
v 1.719538 12.991742 -0.563613
v 1.542733 12.358854 -0.857131
v 1.628779 13.066656 -0.526839
v 1.633644 12.358759 -0.857309
v 1.719687 13.066561 -0.527017
v 1.545377 12.416434 -0.855316
v 1.610430 13.231606 -0.624286
v 1.636287 12.416340 -0.855494
v 1.519520 13.231700 -0.624108
v 1.628104 13.000483 -0.837016
v 1.519257 13.236024 -0.760900
v 1.719013 13.000387 -0.837195
v 1.610166 13.235929 -0.761078
v 1.719031 13.077369 -0.868993
v 1.628122 13.077464 -0.868816
vn 0.8294 0.5585 0.0161
vn 0.9589 0.2835 0.0071
vn 0.8294 0.5585 0.0160
vn 0.9980 -0.0624 -0.0039
vn 0.9957 -0.0930 -0.0049
vn 0.9958 -0.0916 -0.0048
vn 0.9905 -0.1373 -0.0062
vn -0.8294 -0.5585 -0.0161
vn -0.9589 -0.2835 -0.0071
vn -0.9980 0.0624 0.0039
vn -0.9957 0.0930 0.0048
vn -0.9958 0.0916 0.0048
vn -0.9905 0.1373 0.0062
vn 0.0019 -0.0316 0.9995
vn 0.0007 -0.6999 0.7142
vn 0.0005 -0.7594 0.6506
vn -0.0022 -0.6534 -0.7570
vn 0.0017 -0.2320 0.9727
vn -0.0021 -0.7169 -0.6972
vn 0.0016 -0.2505 0.9681
vn -0.0019 0.0316 -0.9995
vn 0.0021 0.1153 0.9933
vn 0.0019 -0.0666 0.9978
vn 0.0020 0.8185 0.5745
vn 0.0018 0.9106 0.4133
vn -0.0021 -0.1701 -0.9854
vn 0.0003 0.9349 -0.3550
vn -0.0021 -0.1889 -0.9820
vn -0.0001 0.8532 -0.5217
vn -0.0020 -0.0035 -1.0000
vn -0.0017 0.1779 -0.9841
vt 0.000000 0.000000
s 1
usemtl Meshpart5Mtl.004
f 49/2/32 51/2/33 50/2/33
f 50/2/33 52/2/34 49/2/32
f 51/2/33 53/2/35 50/2/33
f 53/2/35 51/2/33 54/2/35
f 53/2/35 54/2/35 55/2/36
f 56/2/36 55/2/36 54/2/35
f 56/2/36 57/2/37 55/2/36
f 57/2/37 56/2/36 58/2/37
f 58/2/37 59/2/38 57/2/37
f 59/2/38 58/2/37 60/2/38
f 61/2/39 63/2/39 62/2/40
f 62/2/40 64/2/40 61/2/39
f 62/2/40 65/2/41 64/2/40
f 65/2/41 66/2/41 64/2/40
f 66/2/41 65/2/41 67/2/42
f 66/2/41 67/2/42 68/2/42
f 68/2/42 67/2/42 69/2/43
f 69/2/43 70/2/43 68/2/42
f 70/2/43 69/2/43 71/2/44
f 72/2/44 70/2/43 71/2/44
f 73/2/45 75/2/46 74/2/45
f 76/2/45 73/2/45 74/2/45
f 73/2/45 77/2/47 75/2/46
f 76/2/45 74/2/45 78/2/45
f 75/2/46 77/2/47 79/2/48
f 78/2/45 80/2/49 76/2/45
f 77/2/47 81/2/50 79/2/48
f 82/2/51 80/2/49 78/2/45
f 79/2/48 81/2/50 83/2/52
f 84/2/53 80/2/49 82/2/51
f 83/2/52 85/2/52 79/2/48
f 84/2/53 82/2/51 86/2/54
f 85/2/52 83/2/52 87/2/52
f 84/2/53 86/2/54 88/2/55
f 87/2/52 89/2/52 85/2/52
f 88/2/55 90/2/56 84/2/53
f 89/2/52 87/2/52 91/2/57
f 90/2/56 88/2/55 92/2/58
f 91/2/57 93/2/59 89/2/52
f 88/2/55 94/2/60 92/2/58
f 91/2/57 95/2/61 93/2/59
f 92/2/58 94/2/60 96/2/62
f 91/2/57 96/2/62 95/2/61
f 95/2/61 96/2/62 94/2/60
o RenderMesh_18687756555.002
v 1.610430 13.231606 -1.721184
v 1.719031 13.077369 -1.965891
v 1.719687 13.066561 -1.623915
v 1.610166 13.235929 -1.857976
v 1.719013 13.000387 -1.934093
v 1.719538 12.991742 -1.660511
v 1.636287 12.416340 -1.952392
v 1.636813 12.407694 -1.678811
v 1.633644 12.358759 -1.954207
v 1.634168 12.350113 -1.680625
v 1.625789 12.302176 -1.955980
v 1.626315 12.293529 -1.682398
v 1.519520 13.231700 -1.721006
v 1.628122 13.077464 -1.965714
v 1.519257 13.236024 -1.857798
v 1.628779 13.066656 -1.623737
v 1.628104 13.000483 -1.933914
v 1.628629 12.991837 -1.660334
v 1.545377 12.416434 -1.952214
v 1.545901 12.407788 -1.678633
v 1.542733 12.358854 -1.954029
v 1.543259 12.350207 -1.680448
v 1.534878 12.302270 -1.955802
v 1.535403 12.293624 -1.682221
v 1.543259 12.350207 -1.680448
v 1.634168 12.350113 -1.680625
v 1.626315 12.293529 -1.682398
v 1.545901 12.407788 -1.678633
v 1.535403 12.293624 -1.682221
v 1.636813 12.407694 -1.678811
v 1.625789 12.302176 -1.955980
v 1.628629 12.991837 -1.660334
v 1.534878 12.302270 -1.955802
v 1.719538 12.991742 -1.660511
v 1.542733 12.358854 -1.954029
v 1.628779 13.066656 -1.623737
v 1.633644 12.358759 -1.954207
v 1.719687 13.066561 -1.623915
v 1.545377 12.416434 -1.952214
v 1.610430 13.231606 -1.721184
v 1.636287 12.416340 -1.952392
v 1.519520 13.231700 -1.721006
v 1.628104 13.000483 -1.933914
v 1.519257 13.236024 -1.857798
v 1.719013 13.000387 -1.934093
v 1.610166 13.235929 -1.857976
v 1.719031 13.077369 -1.965891
v 1.628122 13.077464 -1.965714
vn 0.8294 0.5585 0.0161
vn 0.9589 0.2835 0.0071
vn 0.8293 0.5585 0.0160
vn 0.9980 -0.0624 -0.0039
vn 0.9957 -0.0930 -0.0049
vn 0.9958 -0.0916 -0.0048
vn 0.9905 -0.1373 -0.0062
vn -0.8294 -0.5585 -0.0161
vn -0.9589 -0.2835 -0.0071
vn -0.9980 0.0624 0.0039
vn -0.9957 0.0930 0.0048
vn -0.9958 0.0916 0.0048
vn -0.9905 0.1373 0.0062
vn 0.0019 -0.0316 0.9995
vn 0.0007 -0.6999 0.7142
vn 0.0005 -0.7594 0.6506
vn -0.0022 -0.6534 -0.7570
vn 0.0017 -0.2320 0.9727
vn -0.0021 -0.7169 -0.6972
vn 0.0016 -0.2505 0.9681
vn -0.0019 0.0316 -0.9995
vn 0.0021 0.1153 0.9933
vn 0.0019 -0.0666 0.9978
vn 0.0020 0.8185 0.5745
vn 0.0018 0.9106 0.4133
vn -0.0021 -0.1701 -0.9854
vn 0.0003 0.9349 -0.3550
vn -0.0021 -0.1889 -0.9820
vn -0.0001 0.8532 -0.5217
vn -0.0020 -0.0035 -1.0000
vn -0.0017 0.1779 -0.9841
vt 0.000000 0.000000
s 1
usemtl Meshpart5Mtl.004
f 97/3/63 99/3/64 98/3/64
f 98/3/64 100/3/65 97/3/63
f 99/3/64 101/3/66 98/3/64
f 101/3/66 99/3/64 102/3/66
f 101/3/66 102/3/66 103/3/67
f 104/3/67 103/3/67 102/3/66
f 104/3/67 105/3/68 103/3/67
f 105/3/68 104/3/67 106/3/68
f 106/3/68 107/3/69 105/3/68
f 107/3/69 106/3/68 108/3/69
f 109/3/70 111/3/70 110/3/71
f 110/3/71 112/3/71 109/3/70
f 110/3/71 113/3/72 112/3/71
f 113/3/72 114/3/72 112/3/71
f 114/3/72 113/3/72 115/3/73
f 114/3/72 115/3/73 116/3/73
f 116/3/73 115/3/73 117/3/74
f 117/3/74 118/3/74 116/3/73
f 118/3/74 117/3/74 119/3/75
f 120/3/75 118/3/74 119/3/75
f 121/3/76 123/3/77 122/3/76
f 124/3/76 121/3/76 122/3/76
f 121/3/76 125/3/78 123/3/77
f 124/3/76 122/3/76 126/3/76
f 123/3/77 125/3/78 127/3/79
f 126/3/76 128/3/80 124/3/76
f 125/3/78 129/3/81 127/3/79
f 130/3/82 128/3/80 126/3/76
f 127/3/79 129/3/81 131/3/83
f 132/3/84 128/3/80 130/3/82
f 131/3/83 133/3/83 127/3/79
f 132/3/84 130/3/82 134/3/85
f 133/3/83 131/3/83 135/3/83
f 132/3/84 134/3/85 136/3/86
f 135/3/83 137/3/83 133/3/83
f 136/3/86 138/3/87 132/3/84
f 137/3/83 135/3/83 139/3/88
f 138/3/87 136/3/86 140/3/89
f 139/3/88 141/3/90 137/3/83
f 136/3/86 142/3/91 140/3/89
f 139/3/88 143/3/92 141/3/90
f 140/3/89 142/3/91 144/3/93
f 139/3/88 144/3/93 143/3/92
f 143/3/92 144/3/93 142/3/91
o RenderMesh_18687756685.001
v 0.631779 0.067303 0.149579
v 0.328387 0.149339 0.144762
v 0.330974 0.149140 -0.021525
v 0.634366 0.067104 -0.016707
v 0.141660 -0.378739 0.158287
v 0.480246 -0.537574 0.163743
v 0.483323 -0.537810 -0.034130
v 0.144738 -0.378976 -0.039586
v 0.509793 -0.481373 -0.033786
v 0.480246 -0.537574 0.163743
v 0.506714 -0.481136 0.164088
v 0.483323 -0.537810 -0.034130
v 0.497584 -0.430850 0.148088
v 0.500170 -0.431050 -0.018199
v 0.598143 -0.176528 0.149347
v 0.600730 -0.176727 -0.016939
v 0.631779 0.067303 0.149579
v 0.634366 0.067104 -0.016707
v 0.141660 -0.378739 0.158287
v 0.144738 -0.378976 -0.039586
v 0.168129 -0.322301 0.158632
v 0.171206 -0.322538 -0.039242
v 0.213046 -0.297372 0.143503
v 0.215633 -0.297570 -0.022784
v 0.297339 -0.094691 -0.021756
v 0.294753 -0.094492 0.144531
v 0.330974 0.149140 -0.021525
v 0.328387 0.149339 0.144762
v 0.480246 -0.537574 0.163743
v 0.141660 -0.378739 0.158287
v 0.506714 -0.481136 0.164088
v 0.168129 -0.322301 0.158632
v 0.213046 -0.297372 0.143503
v 0.497584 -0.430850 0.148088
v 0.294753 -0.094492 0.144531
v 0.598143 -0.176528 0.149347
v 0.631779 0.067303 0.149579
v 0.328387 0.149339 0.144762
v 0.144738 -0.378976 -0.039586
v 0.509793 -0.481373 -0.033786
v 0.171206 -0.322538 -0.039242
v 0.483323 -0.537810 -0.034130
v 0.215633 -0.297570 -0.022784
v 0.500170 -0.431050 -0.018199
v 0.297339 -0.094691 -0.021756
v 0.600730 -0.176727 -0.016939
v 0.634366 0.067104 -0.016707
v 0.330974 0.149140 -0.021525
vn 0.2610 0.9653 0.0029
vn -0.4246 -0.9054 -0.0055
vn 0.9916 -0.1286 0.0156
vn 0.9052 -0.4246 0.0146
vn 0.9052 -0.4247 0.0146
vn 0.9980 -0.0610 0.0156
vn 0.9690 -0.2465 0.0153
vn 0.9690 -0.2466 0.0154
vn 0.9905 -0.1367 0.0156
vn -0.9052 0.4246 -0.0146
vn -0.7783 0.6278 -0.0128
vn -0.7782 0.6279 -0.0129
vn -0.7847 0.6197 -0.0129
vn -0.7847 0.6197 -0.0130
vn -0.9683 0.2491 -0.0154
vn -0.9683 0.2492 -0.0153
vn -0.9905 0.1366 -0.0156
vn -0.0156 0.0012 0.9999
vn 0.0594 0.1607 0.9852
vn 0.0171 0.0708 0.9973
vn 0.0916 0.2286 0.9692
vn 0.0657 0.1736 0.9826
vn -0.0155 0.0012 0.9999
vn 0.0156 -0.0012 -0.9999
vn 0.0481 0.0684 -0.9965
vn 0.0901 0.1584 -0.9833
vn 0.0155 -0.0012 -0.9999
vn 0.1217 0.2263 -0.9664
vn 0.0962 0.1713 -0.9805
vt 0.000000 0.000000
s 1
usemtl Meshpart5Mtl.004
f 145/4/94 147/4/94 146/4/94
f 145/4/94 148/4/94 147/4/94
f 149/4/95 151/4/95 150/4/95
f 149/4/95 152/4/95 151/4/95
f 153/4/96 155/4/96 154/4/97
f 154/4/97 156/4/98 153/4/96
f 157/4/99 155/4/96 153/4/96
f 153/4/96 158/4/99 157/4/99
f 159/4/100 157/4/99 158/4/99
f 158/4/99 160/4/101 159/4/100
f 161/4/102 159/4/100 160/4/101
f 160/4/101 162/4/102 161/4/102
f 163/4/103 165/4/104 164/4/103
f 165/4/104 166/4/105 164/4/103
f 166/4/105 165/4/104 167/4/106
f 167/4/106 168/4/107 166/4/105
f 167/4/106 169/4/108 168/4/107
f 170/4/109 169/4/108 167/4/106
f 170/4/109 171/4/110 169/4/108
f 172/4/110 171/4/110 170/4/109
f 173/4/111 175/4/112 174/4/111
f 175/4/112 176/4/113 174/4/111
f 175/4/112 177/4/114 176/4/113
f 177/4/114 175/4/112 178/4/115
f 178/4/115 179/4/111 177/4/114
f 179/4/111 178/4/115 180/4/116
f 179/4/111 180/4/116 181/4/111
f 181/4/111 182/4/111 179/4/111
f 183/4/117 185/4/118 184/4/119
f 184/4/119 186/4/120 183/4/117
f 184/4/119 185/4/118 187/4/121
f 187/4/121 188/4/122 184/4/119
f 188/4/122 187/4/121 189/4/117
f 189/4/117 190/4/117 188/4/122
f 189/4/117 191/4/117 190/4/117
f 189/4/117 192/4/117 191/4/117
o RenderMesh_18687756845
v 0.441562 0.093596 0.155824
v 0.447618 0.093991 -0.024146
v 0.469083 0.085708 0.156622
v 0.475139 0.086103 -0.023349
v 0.361344 0.116588 0.153502
v 0.367401 0.116983 -0.026468
v 0.388866 0.108699 0.154299
v 0.394922 0.109095 -0.025671
v 0.521778 0.070606 0.158146
v 0.527834 0.071001 -0.021823
v 0.549301 0.062718 0.158943
v 0.555358 0.063113 -0.021027
v 0.357350 -0.376047 0.147490
v 0.363407 -0.375652 -0.032480
v 0.331534 -0.363210 0.146808
v 0.337590 -0.362815 -0.033162
v 0.282103 -0.338632 0.145502
v 0.288160 -0.338237 -0.034469
v 0.256286 -0.325794 0.144819
v 0.262343 -0.325399 -0.035150
v 0.432598 -0.413464 0.149479
v 0.438654 -0.413069 -0.030490
v 0.406779 -0.400626 0.148797
v 0.412835 -0.400231 -0.031173
v 0.549301 0.062718 0.158943
v 0.555358 0.063113 -0.021027
v 0.521310 -0.174556 0.155204
v 0.527366 -0.174160 -0.024766
v 0.432598 -0.413464 0.149479
v 0.438654 -0.413069 -0.030490
v 0.361344 0.116588 0.153502
v 0.333354 -0.120685 0.149763
v 0.339410 -0.120289 -0.030207
v 0.367401 0.116983 -0.026468
v 0.262343 -0.325399 -0.035150
v 0.256286 -0.325794 0.144819
v 0.331534 -0.363210 0.146808
v 0.413570 -0.143675 0.152085
v 0.357350 -0.376047 0.147490
v 0.441094 -0.151565 0.152882
v 0.469083 0.085708 0.156622
v 0.441562 0.093596 0.155824
v 0.406779 -0.400626 0.148797
v 0.493789 -0.166667 0.154408
v 0.432598 -0.413464 0.149479
v 0.521310 -0.174556 0.155204
v 0.549301 0.062718 0.158943
v 0.521778 0.070606 0.158146
v 0.438654 -0.413069 -0.030490
v 0.499845 -0.166272 -0.025562
v 0.412835 -0.400231 -0.031173
v 0.527366 -0.174160 -0.024766
v 0.555358 0.063113 -0.021027
v 0.527834 0.071001 -0.021823
v 0.363407 -0.375652 -0.032480
v 0.419627 -0.143281 -0.027885
v 0.337590 -0.362815 -0.033162
v 0.447150 -0.151169 -0.027088
v 0.475139 0.086103 -0.023349
v 0.447618 0.093991 -0.024146
v 0.256286 -0.325794 0.144819
v 0.333354 -0.120685 0.149763
v 0.282103 -0.338632 0.145502
v 0.360876 -0.128573 0.150560
v 0.388866 0.108699 0.154299
v 0.361344 0.116588 0.153502
v 0.288160 -0.338237 -0.034469
v 0.339410 -0.120289 -0.030207
v 0.262343 -0.325399 -0.035150
v 0.366932 -0.128178 -0.029410
v 0.394922 0.109095 -0.025671
v 0.367401 0.116983 -0.026468
v 0.469083 0.085708 0.156622
v 0.447150 -0.151169 -0.027088
v 0.441094 -0.151565 0.152882
v 0.475139 0.086103 -0.023349
v 0.363407 -0.375652 -0.032480
v 0.357350 -0.376047 0.147490
v 0.441562 0.093596 0.155824
v 0.413570 -0.143675 0.152085
v 0.419627 -0.143281 -0.027885
v 0.447618 0.093991 -0.024146
v 0.337590 -0.362815 -0.033162
v 0.331534 -0.363210 0.146808
v 0.394922 0.109095 -0.025671
v 0.360876 -0.128573 0.150560
v 0.388866 0.108699 0.154299
v 0.366932 -0.128178 -0.029410
v 0.282103 -0.338632 0.145502
v 0.288160 -0.338237 -0.034469
v 0.521778 0.070606 0.158146
v 0.493789 -0.166667 0.154408
v 0.499845 -0.166272 -0.025562
v 0.527834 0.071001 -0.021823
v 0.412835 -0.400231 -0.031173
v 0.406779 -0.400626 0.148797
vn 0.2752 0.9613 0.0114
vn -0.4448 -0.8955 -0.0169
vn 0.9925 -0.1176 0.0331
vn 0.9824 -0.1837 0.0326
vn 0.9824 -0.1837 0.0332
vn 0.9368 -0.3486 0.0308
vn -0.9925 0.1176 -0.0331
vn -0.9823 0.1843 -0.0331
vn -0.9823 0.1843 -0.0326
vn -0.9354 0.3522 -0.0307
vn -0.0323 -0.0119 0.9994
vn -0.0324 -0.0119 0.9994
vn 0.0324 0.0119 -0.9994
vn 0.0323 0.0119 -0.9994
vn 0.9824 -0.1840 0.0326
vn 0.9824 -0.1840 0.0332
vn 0.9362 -0.3500 0.0307
vn -0.9824 0.1840 -0.0331
vn -0.9824 0.1840 -0.0326
vn -0.9360 0.3505 -0.0307
vn -0.9361 0.3505 -0.0307
vn 0.9824 -0.1842 0.0326
vn 0.9823 -0.1842 0.0332
vn 0.9356 -0.3516 0.0307
vn -0.9824 0.1838 -0.0331
vn -0.9824 0.1837 -0.0326
vn -0.9366 0.3491 -0.0308
vt 0.000000 0.000000
s 1
usemtl Meshpart5Mtl.004
f 193/5/123 195/5/123 194/5/123
f 195/5/123 196/5/123 194/5/123
f 197/5/123 199/5/123 198/5/123
f 199/5/123 200/5/123 198/5/123
f 201/5/123 203/5/123 202/5/123
f 203/5/123 204/5/123 202/5/123
f 205/5/124 207/5/124 206/5/124
f 207/5/124 208/5/124 206/5/124
f 209/5/124 211/5/124 210/5/124
f 211/5/124 212/5/124 210/5/124
f 213/5/124 215/5/124 214/5/124
f 215/5/124 216/5/124 214/5/124
f 217/5/125 219/5/126 218/5/125
f 219/5/126 220/5/127 218/5/125
f 219/5/126 221/5/128 220/5/127
f 221/5/128 222/5/128 220/5/127
f 223/5/129 225/5/130 224/5/131
f 223/5/129 226/5/129 225/5/130
f 224/5/131 225/5/130 227/5/132
f 224/5/131 227/5/132 228/5/132
f 229/5/133 231/5/133 230/5/134
f 232/5/134 230/5/134 231/5/133
f 230/5/134 232/5/134 233/5/134
f 233/5/134 234/5/134 230/5/134
f 235/5/133 237/5/133 236/5/133
f 238/5/133 236/5/133 237/5/133
f 236/5/133 238/5/133 239/5/134
f 239/5/134 240/5/134 236/5/133
f 241/5/135 243/5/135 242/5/136
f 242/5/136 244/5/136 241/5/135
f 245/5/136 244/5/136 242/5/136
f 242/5/136 246/5/136 245/5/136
f 247/5/136 249/5/136 248/5/135
f 248/5/135 250/5/135 247/5/136
f 251/5/135 250/5/135 248/5/135
f 248/5/135 252/5/135 251/5/135
f 253/5/134 255/5/134 254/5/134
f 256/5/134 254/5/134 255/5/134
f 254/5/134 256/5/134 257/5/134
f 257/5/134 258/5/134 254/5/134
f 259/5/136 261/5/136 260/5/135
f 260/5/135 262/5/135 259/5/136
f 263/5/135 262/5/135 260/5/135
f 260/5/135 264/5/135 263/5/135
f 265/5/125 267/5/137 266/5/138
f 266/5/138 268/5/125 265/5/125
f 269/5/139 266/5/138 267/5/137
f 267/5/137 270/5/139 269/5/139
f 271/5/129 273/5/140 272/5/141
f 271/5/129 274/5/129 273/5/140
f 272/5/141 273/5/140 275/5/142
f 272/5/141 275/5/142 276/5/143
f 277/5/125 279/5/125 278/5/144
f 278/5/144 280/5/145 277/5/125
f 278/5/144 281/5/146 280/5/145
f 281/5/146 282/5/146 280/5/145
f 283/5/129 285/5/147 284/5/148
f 283/5/129 286/5/129 285/5/147
f 284/5/148 285/5/147 287/5/149
f 284/5/148 287/5/149 288/5/149
