# Blender 5.2.0 LTS
# www.blender.org
mtllib Aug body.mtl
o Boneclaw_Aug_Body.002
v 0.037432 0.106129 0.095169
v 0.183030 0.025664 0.095169
v 0.075400 -0.023687 0.095169
v 0.533308 -0.023687 0.095169
v -0.111305 0.028532 0.095169
v -0.619307 0.106128 0.095169
v -0.316029 0.027369 0.095169
v 0.037432 0.161731 0.119104
v 1.609339 0.161731 0.119104
v 1.609339 0.106129 0.095169
v 0.942108 -0.124364 0.095169
v 1.277165 -0.321768 0.095169
v 1.538734 -0.321768 0.095169
v 1.536540 -0.363950 0.095169
v 1.529832 -0.405405 0.095169
v 1.230252 -0.405405 0.095169
v 1.230252 -0.363950 0.095169
v 0.565729 -0.108700 0.095169
v 0.920910 -0.191609 0.095169
v 1.515384 0.280173 0.047669
v 0.037432 0.280173 0.047669
v -0.362296 -0.015775 0.095169
v -0.539113 0.026207 0.095169
v -0.438277 -0.066289 0.095169
v -0.619307 0.025663 0.095169
v -0.362296 -0.065126 0.095169
v -0.252603 -0.317673 0.095169
v -0.171032 -0.316085 0.095169
v -0.150994 -0.361403 0.095169
v -0.053600 -0.314986 0.095169
v 0.181180 -0.361403 0.095169
v -0.009223 -0.271837 0.095169
v 0.181180 -0.307794 0.095169
v 0.082796 -0.064590 0.095169
v -0.111305 -0.064590 0.095169
v 0.075400 -0.023687 0.095169
v 0.075400 -0.023687 -0.095597
v 0.082796 -0.064590 0.095169
v 0.082796 -0.064590 -0.095597
v 0.181180 -0.307794 0.095169
v 0.181180 -0.307794 -0.095597
v 0.181180 -0.361403 0.095169
v 0.181180 -0.361403 -0.095597
v -0.362296 -0.015775 0.095169
v -0.316029 0.027369 -0.095597
v -0.316029 0.027369 0.095169
v -0.362296 -0.015775 -0.095597
v -0.362296 -0.065126 0.095169
v -0.362296 -0.065126 -0.095597
v -0.171032 -0.316085 0.095169
v -0.171032 -0.316085 -0.095597
v 0.037432 0.280173 0.047669
v 0.037432 0.280173 -0.047726
v 1.515384 0.280173 0.047669
v 1.515384 0.280173 -0.047726
v -0.171032 -0.316085 0.095169
v -0.053600 -0.314986 0.095169
v -0.171032 -0.316085 -0.095597
v -0.053600 -0.314986 -0.095597
v -0.252603 -0.317673 -0.095597
v -0.423313 -0.086029 -0.095597
v -0.252603 -0.317673 0.095169
v -0.438277 -0.066289 0.095169
v -0.438278 -0.066289 -0.095597
v -0.539113 0.026207 0.095169
v -0.539113 0.026207 -0.095597
v -0.053600 -0.314986 0.095169
v -0.009223 -0.271837 0.095169
v -0.053600 -0.314986 -0.095597
v -0.009223 -0.271837 -0.095597
v -0.111305 -0.064590 0.095169
v -0.111305 -0.064590 -0.095597
v -0.111305 0.028532 0.095169
v -0.111305 0.028532 -0.095597
v 1.230252 -0.363950 -0.095597
v 1.277165 -0.321768 -0.095597
v 1.277165 -0.321768 0.095169
v 1.230252 -0.363950 0.095169
v 1.230252 -0.405405 -0.095597
v 1.230252 -0.405405 0.095169
v 1.529832 -0.405405 0.095169
v 1.230252 -0.405405 -0.095597
v 1.230252 -0.405405 0.095169
v 1.529832 -0.405405 -0.095597
v -0.252603 -0.317673 -0.095597
v -0.252603 -0.317673 0.095169
v -0.150994 -0.361403 -0.095597
v -0.150994 -0.361403 0.095169
v 0.181180 -0.361403 -0.095597
v 0.181180 -0.361403 0.095169
v 0.565729 -0.108700 -0.095597
v 0.565729 -0.108700 0.095169
v 0.920910 -0.191609 -0.095597
v 0.920910 -0.191609 0.095169
v 0.942108 -0.124364 -0.095597
v 0.942108 -0.124364 0.095169
v 1.277165 -0.321768 -0.095597
v 1.277165 -0.321768 0.095169
v 1.515384 0.280173 -0.047726
v 0.037432 0.280173 -0.047726
v 0.037432 0.161730 -0.119161
v 1.609339 0.161730 -0.119161
v 0.037432 0.106129 -0.095597
v 1.609339 0.106129 -0.095597
v 0.533308 -0.023687 -0.095597
v 0.942108 -0.124364 -0.095597
v 1.277165 -0.321768 -0.095597
v 1.538734 -0.321768 -0.095597
v 1.536540 -0.363950 -0.095597
v 1.529832 -0.405405 -0.095597
v 1.230252 -0.405405 -0.095597
v 1.230252 -0.363950 -0.095597
v 0.565729 -0.108700 -0.095597
v 0.920910 -0.191609 -0.095597
v 0.183030 0.025664 -0.095597
v 0.075400 -0.023687 -0.095597
v -0.111305 0.028532 -0.095597
v -0.111305 -0.064590 -0.095597
v 0.082796 -0.064590 -0.095597
v -0.009223 -0.271837 -0.095597
v 0.181180 -0.307794 -0.095597
v 0.181180 -0.361403 -0.095597
v -0.053600 -0.314986 -0.095597
v -0.150994 -0.361403 -0.095597
v -0.171032 -0.316085 -0.095597
v -0.252603 -0.317673 -0.095597
v -0.362296 -0.065126 -0.095597
v -0.423313 -0.086029 -0.095597
v -0.438278 -0.066289 -0.095597
v -0.362296 -0.015775 -0.095597
v -0.539113 0.026207 -0.095597
v -0.316029 0.027369 -0.095597
v -0.619307 0.106128 -0.095597
v -0.619307 0.025663 -0.095597
v 0.565729 -0.108700 -0.095597
v 0.533308 -0.023687 -0.095597
v 0.533308 -0.023687 0.095169
v 0.565729 -0.108700 0.095169
v 0.075400 -0.023687 0.095169
v 0.183030 0.025664 -0.095597
v 0.183030 0.025664 0.095169
v 0.075400 -0.023687 -0.095597
v 0.533308 -0.023687 -0.095597
v 0.533308 -0.023687 0.095169
v -0.316029 0.027369 -0.095597
v -0.316029 0.027369 0.095169
v -0.111305 0.028532 -0.095597
v -0.111305 0.028532 0.095169
v 0.920910 -0.191609 0.095169
v 0.942108 -0.124364 -0.095597
v 0.942108 -0.124364 0.095169
v 0.920910 -0.191609 -0.095597
vn -0.0000 -0.0000 1.0000
vn -0.0000 -0.1343 0.9909
vn -0.0000 -0.0005 1.0000
vn -0.0000 -0.2129 0.9771
vn -0.0000 -0.0383 0.9993
vn -0.0000 0.0704 0.9975
vn -0.0000 0.0005 1.0000
vn -0.0000 0.5180 0.8554
vn -0.0000 0.5179 0.8555
vn 0.8682 -0.4962 -0.0000
vn 0.9593 0.2823 -0.0000
vn 0.9594 0.2822 -0.0000
vn 0.9808 0.1950 -0.0000
vn 0.9808 0.1952 -0.0000
vn 1.0000 -0.0000 -0.0000
vn 0.9116 -0.4111 -0.0000
vn 0.3625 -0.9320 -0.0000
vn 0.9452 0.3266 -0.0000
vn 0.4221 0.9066 -0.0000
vn -0.0000 1.0000 -0.0000
vn -0.3680 0.9298 -0.0000
vn 0.4220 0.9066 -0.0000
vn -0.6161 -0.7877 -0.0000
vn -0.6160 -0.7877 -0.0000
vn -0.8050 -0.5933 -0.0000
vn -0.7422 -0.6702 0.0001
vn -0.7421 -0.6703 -0.0000
vn -0.6747 -0.7381 -0.0000
vn -0.9824 0.1867 -0.0000
vn -0.3686 0.9296 -0.0000
vn -0.9730 -0.2309 -0.0000
vn -0.9730 -0.2307 -0.0000
vn -1.0000 -0.0000 -0.0000
vn -0.9083 0.4183 -0.0000
vn -0.6703 0.7421 -0.0000
vn -0.0000 -1.0000 -0.0000
vn 0.6074 -0.7944 -0.0000
vn -0.6154 -0.7882 -0.0000
vn -0.1958 -0.9806 -0.0000
vn -0.2240 -0.9746 -0.0000
vn -0.2241 -0.9746 -0.0000
vn -0.5042 -0.8636 -0.0000
vn -0.5040 -0.8637 -0.0000
vn -0.5041 -0.8636 -0.0000
vn -0.0000 0.5179 -0.8554
vn -0.0000 0.0709 -0.9975
vn -0.0000 -0.0394 -0.9992
vn -0.0000 -0.1335 -0.9910
vn -0.0000 -0.2128 -0.9771
vn -0.0000 -0.0000 -1.0000
vn -0.0000 -0.0005 -1.0000
vn -0.0000 0.0005 -1.0000
vn -0.9328 -0.3605 -0.0000
vn -0.9327 -0.3606 -0.0000
vn -0.9328 -0.3604 -0.0000
vn 0.8686 -0.4955 -0.0000
vn 0.8687 -0.4954 -0.0000
vn 0.1402 -0.9901 -0.0000
vn 0.1401 -0.9901 -0.0000
vn -0.1395 -0.9902 -0.0000
vn 0.3619 -0.9322 -0.0000
vn 0.0070 -1.0000 -0.0000
vn 0.0068 -1.0000 -0.0000
vn 0.9537 -0.3007 -0.0000
vt 36.043201 -2.972730
vt 35.898998 -2.930020
vt 35.941299 -2.956490
vt 35.910000 -2.972730
vt 35.855801 -2.955550
vt 36.355999 -2.930020
vt 35.796299 -2.955930
vt 35.708099 -2.930020
vt 36.355999 -2.911740
vt 35.898998 -2.911740
vt 36.161999 -3.005850
vt 36.259399 -3.070780
vt 36.335400 -3.070780
vt 36.334801 -3.084660
vt 36.332802 -3.098290
vt 36.245800 -3.098290
vt 36.245800 -3.084660
vt 36.052601 -3.000690
vt 36.155800 -3.027970
vt 36.328701 -2.872770
vt 35.898998 -2.872770
vt 35.782799 -2.970120
vt 35.731400 -2.956320
vt 35.760700 -2.986740
vt 35.708099 -2.956490
vt 35.782799 -2.986360
vt 35.814701 -3.069430
vt 35.838402 -3.068910
vt 35.844200 -3.083820
vt 35.872501 -3.068550
vt 35.940800 -3.083820
vt 35.885502 -3.054360
vt 35.940800 -3.066180
vt 35.912201 -2.986180
vt 35.855801 -2.986180
vt 36.031399 -2.972730
vt 35.968601 -2.972730
vt 35.968601 -2.986180
vt 36.031399 -2.986180
vt 35.968601 -3.066180
vt 36.031399 -3.066180
vt 35.968601 -3.083820
vt 36.031399 -3.083820
vt 35.968601 -2.970120
vt 36.031399 -2.970120
vt 36.031399 -2.955930
vt 35.968601 -2.955930
vt 35.968601 -2.986360
vt 36.031399 -2.986360
vt 35.968601 -3.068910
vt 36.031399 -3.068910
vt 36.101002 -2.984320
vt 35.671299 -2.984320
vt 36.101002 -3.015680
vt 35.671299 -3.015680
vt 36.127499 -2.968640
vt 36.161598 -3.031360
vt 36.161598 -2.968640
vt 36.127499 -3.031360
vt 35.968601 -3.069430
vt 36.031399 -3.069430
vt 35.968601 -2.993230
vt 36.031399 -2.986740
vt 35.968601 -2.986740
vt 36.031399 -2.956320
vt 35.968601 -2.956320
vt 36.031399 -3.054360
vt 35.968601 -3.068550
vt 36.031399 -3.068550
vt 35.968601 -3.054360
vt 36.031399 -2.955550
vt 35.968601 -2.955550
vt 35.968601 -3.084660
vt 36.031399 -3.070780
vt 35.968601 -3.070780
vt 36.031399 -3.084660
vt 35.968601 -3.098290
vt 36.031399 -3.098290
vt 36.245800 -3.031360
vt 36.332802 -3.031360
vt 36.332802 -2.968640
vt 36.245800 -2.968640
vt 35.814701 -2.968640
vt 35.814701 -3.031360
vt 35.844200 -3.031360
vt 35.844200 -2.968640
vt 35.940800 -3.031360
vt 35.940800 -2.968640
vt 36.052601 -3.031360
vt 36.155800 -3.031360
vt 36.052601 -2.968640
vt 36.155800 -2.968640
vt 36.161999 -3.031360
vt 36.259399 -3.031360
vt 36.161999 -2.968640
vt 36.259399 -2.968640
vt 35.671299 -2.872770
vt 36.101002 -2.911740
vt 36.101002 -2.872770
vt 35.644001 -2.911740
vt 36.101002 -2.930020
vt 35.644001 -2.930020
vt 35.956799 -2.972730
vt 35.838001 -3.005850
vt 35.740601 -3.070780
vt 35.664600 -3.070780
vt 35.665199 -3.084660
vt 35.667198 -3.098290
vt 35.754200 -3.098290
vt 35.754200 -3.084660
vt 35.947399 -3.000690
vt 35.844200 -3.027970
vt 36.058701 -2.956490
vt 36.090000 -2.972730
vt 36.144199 -2.955550
vt 36.144199 -2.986180
vt 36.087799 -2.986180
vt 36.114498 -3.054360
vt 36.059200 -3.066180
vt 36.059200 -3.083820
vt 36.127499 -3.068550
vt 36.155800 -3.083820
vt 36.161598 -3.068910
vt 36.185299 -3.069430
vt 36.217201 -2.986360
vt 36.234901 -2.993230
vt 36.239300 -2.986740
vt 36.217201 -2.970120
vt 36.268600 -2.956320
vt 36.203701 -2.955930
vt 36.291901 -2.930020
vt 36.291901 -2.956490
vt 35.968601 -3.000690
vt 36.031399 -3.000690
vt 35.910000 -2.968640
vt 35.910000 -3.031360
vt 35.941299 -3.031360
vt 35.941299 -2.968640
vt 36.043201 -3.031360
vt 36.043201 -2.968640
vt 35.796299 -3.031360
vt 35.855801 -3.031360
vt 35.796299 -2.968640
vt 35.855801 -2.968640
vt 35.968601 -3.027970
vt 36.031399 -3.027970
vt 36.031399 -3.005850
vt 35.968601 -3.005850
s 1
usemtl Meshpart4Mtl.024
f 4/1/1 1/2/2 2/3/3
f 1/2/2 3/4/1 2/3/3
f 3/4/1 1/2/2 5/5/1
f 1/2/2 4/1/1 10/6/4
f 1/2/2 7/7/1 5/5/1
f 6/8/1 7/7/1 1/2/2
f 1/2/2 9/9/5 8/10/6
f 1/2/2 10/6/4 9/9/5
f 10/6/4 4/1/1 11/11/1
f 12/12/1 10/6/4 11/11/1
f 10/6/4 12/12/1 13/13/1
f 12/12/1 14/14/1 13/13/1
f 14/14/1 12/12/1 15/15/1
f 15/15/1 12/12/1 16/16/1
f 16/16/1 12/12/1 17/17/1
f 18/18/7 11/11/1 4/1/1
f 11/11/1 18/18/7 19/19/1
f 8/10/6 9/9/5 20/20/8
f 8/10/6 20/20/8 21/21/9
f 22/22/1 7/7/1 23/23/1
f 7/7/1 6/8/1 23/23/1
f 24/24/1 22/22/1 23/23/1
f 25/25/1 23/23/1 6/8/1
f 22/22/1 24/24/1 26/26/1
f 24/24/1 27/27/1 26/26/1
f 28/28/1 26/26/1 27/27/1
f 27/27/1 29/29/1 28/28/1
f 30/30/1 28/28/1 29/29/1
f 29/29/1 31/31/1 30/30/1
f 31/31/1 32/32/1 30/30/1
f 32/32/1 31/31/1 33/33/1
f 33/33/1 34/34/1 32/32/1
f 3/4/1 35/35/1 34/34/1
f 35/35/1 32/32/1 34/34/1
f 35/35/1 3/4/1 5/5/1
f 37/36/10 36/37/10 38/38/11
f 38/38/11 39/39/12 37/36/10
f 39/39/12 38/38/11 40/40/13
f 41/41/14 39/39/12 40/40/13
f 41/41/14 40/40/13 42/42/15
f 42/42/15 43/43/15 41/41/14
f 44/44/16 47/45/16 45/46/17
f 45/46/17 46/47/17 44/44/16
f 47/45/16 44/44/16 48/48/18
f 48/48/18 49/49/18 47/45/16
f 49/49/18 48/48/18 50/50/19
f 51/51/19 49/49/18 50/50/19
f 52/52/20 54/53/20 53/54/20
f 55/55/20 53/54/20 54/53/20
f 57/56/21 58/57/22 56/58/22
f 58/57/22 57/56/21 59/59/21
f 60/60/23 62/61/24 61/62/25
f 61/62/25 62/61/24 63/63/26
f 63/63/26 64/64/27 61/62/25
f 65/65/28 64/64/27 63/63/26
f 64/64/27 65/65/28 66/66/28
f 68/67/29 69/68/30 67/69/30
f 69/68/30 68/67/29 70/70/29
f 71/39/31 70/70/29 68/67/29
f 70/70/29 71/39/31 72/38/32
f 73/71/33 72/38/32 71/39/31
f 72/38/32 73/71/33 74/72/33
f 75/73/34 77/74/35 76/75/35
f 77/74/35 75/73/34 78/76/34
f 79/77/33 78/76/34 75/73/34
f 78/76/34 79/77/33 80/78/33
f 82/79/36 84/80/37 81/81/37
f 82/79/36 81/81/37 83/82/36
f 86/83/38 85/84/38 87/85/39
f 87/85/39 88/86/39 86/83/38
f 87/85/39 89/87/36 88/86/39
f 89/87/36 90/88/36 88/86/39
f 91/89/40 93/90/40 92/91/40
f 93/90/40 94/92/41 92/91/40
f 95/93/42 97/94/43 96/95/44
f 97/94/43 98/96/43 96/95/44
f 99/97/45 101/98/46 100/99/45
f 101/98/46 99/97/45 102/100/47
f 101/98/46 102/100/47 103/101/48
f 104/102/49 103/101/48 102/100/47
f 103/101/48 104/102/49 105/103/50
f 105/103/50 104/102/49 106/104/50
f 104/102/49 107/105/50 106/104/50
f 104/102/49 108/106/50 107/105/50
f 109/107/51 107/105/50 108/106/50
f 110/108/50 107/105/50 109/107/51
f 111/109/50 107/105/50 110/108/50
f 107/105/50 111/109/50 112/110/50
f 106/104/50 113/111/50 105/103/50
f 113/111/50 106/104/50 114/112/50
f 103/101/48 105/103/50 115/113/52
f 116/114/51 103/101/48 115/113/52
f 103/101/48 116/114/51 117/115/50
f 118/116/50 117/115/50 116/114/51
f 118/116/50 116/114/51 119/117/50
f 120/118/50 118/116/50 119/117/50
f 119/117/50 121/119/50 120/118/50
f 122/120/50 120/118/50 121/119/50
f 120/118/50 122/120/50 123/121/50
f 123/121/50 122/120/50 124/122/50
f 124/122/50 125/123/50 123/121/50
f 124/122/50 126/124/50 125/123/50
f 127/125/50 125/123/50 126/124/50
f 126/124/50 128/126/50 127/125/50
f 127/125/50 128/126/50 129/127/50
f 129/127/50 130/128/50 127/125/50
f 131/129/50 130/128/50 129/127/50
f 130/128/50 131/129/50 132/130/50
f 133/131/50 132/130/50 131/129/50
f 133/131/50 131/129/50 134/132/50
f 103/101/48 132/130/50 133/131/50
f 132/130/50 103/101/48 117/115/50
f 135/133/53 137/36/54 136/37/55
f 137/36/54 135/133/53 138/134/54
f 139/135/56 142/136/57 140/137/58
f 140/137/58 141/138/59 139/135/56
f 140/137/58 143/139/60 141/138/59
f 143/139/60 144/140/60 141/138/59
f 145/141/61 147/142/62 146/143/61
f 147/142/62 148/144/63 146/143/61
f 149/145/64 152/146/64 150/147/64
f 150/147/64 151/148/64 149/145/64
o RenderMesh_18687756555.003
v -0.608753 -0.012513 0.055191
v -0.639891 -0.180307 0.055191
v -0.725217 -0.012513 0.055191
v -0.585244 -0.035876 0.024113
v -0.604471 -0.180307 -0.012433
v -0.585244 -0.035876 -0.012433
v -0.604471 -0.180307 0.024113
v -0.617536 -0.279009 0.055191
v -0.582132 -0.279009 0.024113
v -0.582132 -0.377711 0.024113
v -0.582132 -0.279009 -0.012433
v -0.617510 -0.377711 0.055191
v -0.617502 -0.466543 0.055191
v -0.725075 -0.377711 0.055191
v -0.758530 -0.466543 0.055191
v -0.760837 -0.377711 0.024113
v -0.736320 -0.279009 0.055191
v -0.725199 -0.180307 0.055191
v -0.760837 -0.180307 0.024113
v -0.772006 -0.279009 0.024113
v -0.772006 -0.279009 -0.012433
v -0.760837 -0.377711 -0.012433
v -0.736320 -0.279009 -0.043511
v -0.725075 -0.377711 -0.043511
v -0.758530 -0.466543 -0.043511
v -0.794343 -0.466543 -0.012433
v -0.794343 -0.466543 0.024113
v -0.617502 -0.466543 -0.043511
v -0.617510 -0.377711 -0.043511
v -0.582132 -0.377711 -0.012433
v -0.582132 -0.466543 -0.012433
v -0.582132 -0.466543 0.024113
v -0.617536 -0.279009 -0.043511
v -0.639891 -0.180307 -0.043511
v -0.725217 -0.012513 -0.043512
v -0.725199 -0.180307 -0.043511
v -0.608753 -0.012513 -0.043512
v -0.760837 -0.180307 -0.012433
v -0.760837 -0.012513 -0.012433
v -0.760837 -0.012513 0.024113
v -0.758530 -0.466543 0.055191
v -0.617502 -0.466543 -0.043511
v -0.758530 -0.466543 -0.043511
v -0.794343 -0.466543 -0.012433
v -0.794343 -0.466543 0.024113
v -0.617502 -0.466543 0.055191
v -0.582132 -0.466543 -0.012433
v -0.582132 -0.466543 0.024113
v -0.725217 -0.012513 -0.043512
v -0.725217 -0.012513 0.055191
v -0.760837 -0.012513 0.024113
v -0.760837 -0.012513 -0.012433
v -0.608753 -0.012513 0.055191
v -0.608753 -0.012513 -0.043512
v -0.585244 -0.035876 -0.012433
v -0.585244 -0.035876 0.024113
vn 0.3184 0.0079 0.9479
vn 0.8870 -0.1305 0.4430
vn 0.3209 -0.0517 0.9457
vn -0.3410 -0.0000 0.9401
vn 0.9043 0.0349 0.4255
vn 0.9043 0.0349 -0.4255
vn 0.8869 -0.1305 -0.4431
vn 0.3602 0.0423 0.9319
vn 0.9040 0.0996 0.4157
vn 0.3425 -0.0000 0.9395
vn 0.9048 -0.0000 0.4259
vn 0.9040 0.0996 -0.4157
vn -0.2980 0.0343 0.9540
vn -0.3937 0.1484 0.9072
vn -0.8870 0.1172 0.4467
vn -0.3594 -0.0001 0.9332
vn -0.3312 0.0182 0.9434
vn -0.9004 0.0512 0.4320
vn -0.9080 -0.0000 0.4190
vn -0.9080 -0.0000 -0.4190
vn -0.8870 0.1172 -0.4467
vn -0.3594 -0.0001 -0.9332
vn -0.2980 0.0343 -0.9540
vn -0.3937 0.1484 -0.9072
vn -0.8655 0.3265 0.3798
vn -0.8655 0.3265 -0.3798
vn 0.3425 -0.0000 -0.9395
vn 0.9048 -0.0000 -0.4259
vn 0.9048 -0.0000 -0.4258
vn 0.9048 -0.0000 0.4258
vn 0.3602 0.0423 -0.9319
vn 0.3184 0.0079 -0.9479
vn -0.3410 -0.0000 -0.9401
vn 0.3209 -0.0517 -0.9457
vn -0.3312 0.0182 -0.9434
vn -0.9004 0.0512 -0.4320
vn -0.9040 -0.0000 -0.4275
vn -0.9040 -0.0000 0.4275
vn -0.0000 -1.0000 -0.0000
vn -0.0000 1.0000 -0.0000
vn 0.2412 0.9705 -0.0000
vn 0.7049 0.7093 -0.0000
vt 0.000000 0.000000
s 1
usemtl Meshpart4Mtl.024
f 154/149/65 156/149/66 153/149/67
f 153/149/67 155/149/68 154/149/65
f 154/149/65 159/149/69 156/149/66
f 156/149/66 159/149/69 157/149/70
f 157/149/70 158/149/71 156/149/66
f 159/149/69 154/149/65 160/149/72
f 160/149/72 161/149/73 159/149/69
f 157/149/70 159/149/69 161/149/73
f 164/149/74 162/149/75 161/149/73
f 162/149/75 163/149/76 161/149/73
f 161/149/73 163/149/76 157/149/70
f 161/149/73 160/149/72 164/149/74
f 164/149/74 166/149/77 165/149/74
f 165/149/74 162/149/75 164/149/74
f 166/149/77 164/149/74 160/149/72
f 166/149/77 167/149/78 165/149/74
f 167/149/78 166/149/77 168/149/79
f 169/149/80 168/149/79 166/149/77
f 160/149/72 169/149/80 166/149/77
f 169/149/80 160/149/72 154/149/65
f 154/149/65 170/149/81 169/149/80
f 169/149/80 170/149/81 171/149/82
f 171/149/82 172/149/83 169/149/80
f 168/149/79 169/149/80 172/149/83
f 171/149/82 173/149/84 172/149/83
f 172/149/83 173/149/84 174/149/85
f 172/149/83 174/149/85 168/149/79
f 175/149/86 176/149/87 174/149/85
f 174/149/85 173/149/84 175/149/86
f 177/149/88 174/149/85 176/149/87
f 179/149/89 168/149/79 174/149/85
f 174/149/85 177/149/88 178/149/90
f 174/149/85 178/149/90 179/149/89
f 168/149/79 179/149/89 167/149/78
f 180/149/91 177/149/88 176/149/87
f 176/149/87 181/149/91 180/149/91
f 180/149/91 181/149/91 182/149/92
f 182/149/92 183/149/93 180/149/91
f 182/149/92 162/149/75 183/149/93
f 184/149/94 183/149/93 162/149/75
f 162/149/75 165/149/74 184/149/94
f 163/149/76 182/149/92 181/149/91
f 162/149/75 182/149/92 163/149/76
f 185/149/95 181/149/91 176/149/87
f 181/149/91 185/149/95 163/149/76
f 185/149/95 186/149/96 157/149/70
f 186/149/96 185/149/95 175/149/86
f 176/149/87 175/149/86 185/149/95
f 157/149/70 163/149/76 185/149/95
f 187/149/97 189/149/98 186/149/96
f 186/149/96 188/149/99 187/149/97
f 175/149/86 188/149/99 186/149/96
f 186/149/96 189/149/98 158/149/71
f 158/149/71 157/149/70 186/149/96
f 187/149/97 188/149/99 190/149/100
f 190/149/100 188/149/99 175/149/86
f 190/149/100 191/149/101 187/149/97
f 190/149/100 171/149/82 191/149/101
f 171/149/82 190/149/100 173/149/84
f 175/149/86 173/149/84 190/149/100
f 192/149/102 191/149/101 171/149/82
f 171/149/82 155/149/68 192/149/102
f 155/149/68 171/149/82 170/149/81
f 155/149/68 170/149/81 154/149/65
f 198/149/103 193/149/103 194/149/103
f 193/149/103 195/149/103 194/149/103
f 193/149/103 196/149/103 195/149/103
f 193/149/103 197/149/103 196/149/103
f 194/149/103 199/149/103 198/149/103
f 199/149/103 200/149/103 198/149/103
f 202/149/104 205/149/105 201/149/104
f 201/149/104 203/149/104 202/149/104
f 201/149/104 204/149/104 203/149/104
f 205/149/105 206/149/105 201/149/104
f 205/149/105 207/149/106 206/149/105
f 205/149/105 208/149/106 207/149/106
