# Blender 5.2.0 LTS
# www.blender.org
mtllib aUG SIDEBODY.mtl
o Boneclaw_Aug_Body.001
v 1.854919 0.240740 -0.051900
v 1.948830 0.117795 -0.129807
v 1.948830 0.117795 0.130121
v 1.854919 0.240740 0.052214
v 1.948830 0.060081 0.104283
v 1.948830 0.060081 -0.103947
v 1.878268 -0.384081 0.104283
v 1.878268 -0.384081 -0.103946
v 1.876031 -0.427867 0.104283
v 1.876031 -0.427867 -0.103946
v 1.869323 -0.470898 0.104283
v 1.869323 -0.470898 -0.103946
v 1.854919 0.240740 -0.051900
v 1.776702 0.240740 -0.051900
v 1.776702 0.240740 0.052214
v 1.854919 0.240740 0.052214
v 1.869323 -0.470898 0.104283
v 1.791150 -0.470898 0.104283
v 1.797858 -0.427867 0.104283
v 1.876031 -0.427867 0.104283
v 1.800093 -0.384081 0.104283
v 1.878268 -0.384081 0.104283
v 1.870657 0.060081 0.104283
v 1.948830 0.060081 0.104283
v 1.948830 0.117795 0.130121
v 1.870657 0.117795 0.130121
v 1.854919 0.240740 0.052214
v 1.776702 0.240740 0.052214
v 1.776702 0.240740 -0.051900
v 1.776702 0.240740 0.052214
v 1.870657 0.117795 0.130121
v 1.870657 0.117795 -0.129807
v 1.870657 0.060081 0.104283
v 1.870657 0.060081 -0.103946
v 1.800093 -0.384081 0.104283
v 1.800093 -0.384081 -0.103946
v 1.797858 -0.427867 0.104283
v 1.797858 -0.427867 -0.103946
v 1.791150 -0.470898 0.104283
v 1.791150 -0.470898 -0.103946
v 1.869323 -0.470898 -0.103946
v 1.791150 -0.470898 -0.103946
v 1.869323 -0.470898 0.104283
v 1.791150 -0.470898 0.104283
v 1.797858 -0.427867 -0.103946
v 1.869323 -0.470898 -0.103946
v 1.876031 -0.427867 -0.103946
v 1.800093 -0.384081 -0.103946
v 1.791150 -0.470898 -0.103946
v 1.878268 -0.384081 -0.103946
v 1.870657 0.060081 -0.103946
v 1.948830 0.060081 -0.103947
v 1.870657 0.117795 -0.129807
v 1.948830 0.117795 -0.129807
v 1.854919 0.240740 -0.051900
v 1.776702 0.240740 -0.051900
v 1.822969 0.226646 0.047669
v 1.822969 0.226646 -0.047726
v 1.916924 0.108204 -0.119161
v 1.916924 0.108204 0.119104
v 1.916924 0.052602 0.095169
v 1.916924 0.052602 -0.095597
v 1.846319 -0.375294 0.095169
v 1.846319 -0.375294 -0.095597
v 1.844125 -0.417477 0.095169
v 1.844125 -0.417477 -0.095597
v 1.837417 -0.458932 0.095169
v 1.837417 -0.458932 -0.095597
v 1.808220 -0.100792 0.099343
v 1.817465 -0.120518 0.099343
v 1.808220 -0.100792 -0.099771
v 1.817465 -0.120518 -0.099771
v 1.808220 -0.140248 0.099343
v 1.808220 -0.140248 -0.099771
v 1.205103 -0.160015 0.099343
v 1.214348 -0.179741 0.099343
v 1.205103 -0.160015 -0.099771
v 1.214348 -0.179741 -0.099771
v 1.205103 -0.199467 0.099343
v 1.205103 -0.199467 -0.099771
v 1.774723 -0.396899 0.099343
v 1.783968 -0.416626 0.099343
v 1.774723 -0.396899 -0.099771
v 1.783968 -0.416626 -0.099771
v 1.774723 -0.436354 0.099343
v 1.774723 -0.436354 -0.099771
v 1.763587 -0.100792 -0.099771
v 1.785903 -0.092622 -0.099771
v 1.785903 -0.092622 0.099343
v 1.763587 -0.100792 0.099343
v 1.808220 -0.100792 0.099343
v 1.808220 -0.100792 -0.099771
v 1.160425 -0.160015 -0.099771
v 1.182785 -0.151842 -0.099771
v 1.182785 -0.151842 0.099343
v 1.160425 -0.160015 0.099343
v 1.205103 -0.160015 0.099343
v 1.205103 -0.160015 -0.099771
v 1.730046 -0.396899 -0.099771
v 1.752363 -0.388728 -0.099771
v 1.752363 -0.388728 0.099343
v 1.730046 -0.396899 0.099343
v 1.774723 -0.396899 0.099343
v 1.774723 -0.396899 -0.099771
v 1.730046 -0.436354 0.099343
v 1.720801 -0.416626 0.099343
v 1.752363 -0.388728 0.099343
v 1.783968 -0.416626 0.099343
v 1.752363 -0.444525 0.099343
v 1.774723 -0.436354 0.099343
v 1.774723 -0.396899 0.099343
v 1.730046 -0.396899 0.099343
v 1.160425 -0.199467 0.099343
v 1.151181 -0.179741 0.099343
v 1.160425 -0.160015 0.099343
v 1.214348 -0.179741 0.099343
v 1.182785 -0.207641 0.099343
v 1.205103 -0.199467 0.099343
v 1.182785 -0.151842 0.099343
v 1.205103 -0.160015 0.099343
v 1.763587 -0.140248 0.099343
v 1.754342 -0.120518 0.099343
v 1.785903 -0.092622 0.099343
v 1.808220 -0.140248 0.099343
v 1.785903 -0.148418 0.099343
v 1.817465 -0.120518 0.099343
v 1.808220 -0.100792 0.099343
v 1.763587 -0.100792 0.099343
v 1.763587 -0.100792 -0.099771
v 1.754342 -0.120518 -0.099771
v 1.763587 -0.100792 0.099343
v 1.754342 -0.120518 0.099343
v 1.763587 -0.140248 -0.099771
v 1.763587 -0.140248 0.099343
v 1.160425 -0.160015 -0.099771
v 1.151181 -0.179741 -0.099771
v 1.160425 -0.160015 0.099343
v 1.151181 -0.179741 0.099343
v 1.160425 -0.199467 -0.099771
v 1.160425 -0.199467 0.099343
v 1.730046 -0.396899 -0.099771
v 1.720801 -0.416626 -0.099771
v 1.730046 -0.396899 0.099343
v 1.720801 -0.416626 0.099343
v 1.730046 -0.436354 -0.099771
v 1.730046 -0.436354 0.099343
v 1.763587 -0.140248 -0.099771
v 1.785903 -0.148418 -0.099771
v 1.763587 -0.140248 0.099343
v 1.785903 -0.148418 0.099343
v 1.808220 -0.140248 0.099343
v 1.808220 -0.140248 -0.099771
v 1.160425 -0.199467 -0.099771
v 1.182785 -0.207641 -0.099771
v 1.160425 -0.199467 0.099343
v 1.182785 -0.207641 0.099343
v 1.205103 -0.199467 0.099343
v 1.205103 -0.199467 -0.099771
v 1.730046 -0.436354 -0.099771
v 1.752363 -0.444525 -0.099771
v 1.730046 -0.436354 0.099343
v 1.752363 -0.444525 0.099343
v 1.774723 -0.436354 0.099343
v 1.774723 -0.436354 -0.099771
v 1.783968 -0.416626 -0.099771
v 1.774723 -0.396899 -0.099771
v 1.752363 -0.388728 -0.099771
v 1.730046 -0.436354 -0.099771
v 1.752363 -0.444525 -0.099771
v 1.774723 -0.436354 -0.099771
v 1.720801 -0.416626 -0.099771
v 1.730046 -0.396899 -0.099771
v 1.214348 -0.179741 -0.099771
v 1.205103 -0.160015 -0.099771
v 1.182785 -0.151842 -0.099771
v 1.160425 -0.160015 -0.099771
v 1.160425 -0.199467 -0.099771
v 1.182785 -0.207641 -0.099771
v 1.205103 -0.199467 -0.099771
v 1.151181 -0.179741 -0.099771
v 1.817465 -0.120518 -0.099771
v 1.808220 -0.100792 -0.099771
v 1.785903 -0.092622 -0.099771
v 1.808220 -0.140248 -0.099771
v 1.763587 -0.140248 -0.099771
v 1.785903 -0.148418 -0.099771
v 1.754342 -0.120518 -0.099771
v 1.763587 -0.100792 -0.099771
vn 0.7942 0.6077 -0.0000
vn 0.9483 0.3173 -0.0000
vn 0.9485 0.3168 -0.0000
vn 0.7947 0.6070 -0.0000
vn 0.9975 -0.0704 -0.0000
vn 0.9975 -0.0709 -0.0000
vn 0.9943 -0.1070 -0.0000
vn 0.9885 -0.1510 -0.0000
vn -0.0000 0.9225 -0.3861
vn -0.0000 0.9225 0.3861
vn -0.0000 0.8345 -0.5511
vn -0.0000 0.8345 0.5511
vn -0.0000 -0.6790 0.7341
vn -0.0000 -0.0000 1.0000
vn -0.0000 -0.7385 0.6742
vn -0.0000 -0.2052 0.9787
vn -0.0000 -0.2199 0.9755
vn -0.0000 -0.0314 0.9995
vn -0.0000 0.1490 0.9888
vn -0.0000 0.8342 0.5514
vn -0.0000 0.9223 0.3865
vn -0.7946 -0.6072 -0.0000
vn -0.9484 -0.3172 -0.0000
vn -0.9486 -0.3166 -0.0000
vn -0.9975 0.0710 -0.0000
vn -0.9975 0.0704 -0.0000
vn -0.9943 0.1070 -0.0000
vn -0.9943 0.1069 -0.0000
vn -0.9943 0.1068 -0.0000
vn -0.9942 0.1071 -0.0000
vn -0.9885 0.1510 -0.0000
vn -0.0000 -0.6788 -0.7343
vn -0.0000 -0.6788 0.7343
vn -0.0000 -0.7374 -0.6755
vn -0.0000 -0.7374 0.6755
vn -0.0000 -0.0000 -1.0000
vn -0.0000 -0.6792 -0.7339
vn -0.0000 -0.7379 -0.6749
vn -0.0000 -0.2054 -0.9787
vn -0.0000 -0.2201 -0.9755
vn -0.0000 0.1488 -0.9889
vn -0.0000 -0.0312 -0.9995
vn -0.0000 0.8345 -0.5510
vn -0.0000 0.9226 -0.3857
vn 1.0000 -0.0000 -0.0000
vn 0.6625 0.7491 -0.0000
vn 0.6626 0.7490 -0.0002
vn 0.6623 -0.7492 -0.0000
vn 0.6624 -0.7491 0.0002
vn 0.6624 0.7491 -0.0000
vn 0.6625 -0.7491 -0.0000
vn 0.6624 0.7492 -0.0000
vn -0.6621 0.7494 -0.0000
vn -0.0000 1.0000 -0.0000
vn -0.6620 0.7495 -0.0000
vn 0.6619 0.7496 -0.0000
vn 0.6620 0.7495 -0.0000
vn 0.0003 1.0000 -0.0000
vn 0.6621 0.7494 -0.0000
vn -0.0003 1.0000 -0.0000
vn -0.6620 0.7495 -0.0002
vn -0.0000 0.0007 1.0000
vn -0.0000 0.0024 1.0000
vn -0.0000 -0.0005 1.0000
vn -0.0000 -0.0012 1.0000
vn -1.0000 -0.0000 -0.0000
vn -0.6625 0.7491 -0.0000
vn -0.6624 -0.7491 -0.0000
vn -0.6623 -0.7492 -0.0000
vn -0.6623 0.7492 -0.0000
vn -0.6624 0.7491 -0.0000
vn -0.6626 -0.7490 -0.0000
vn -0.0000 -1.0000 -0.0000
vn -0.6620 -0.7495 -0.0000
vn -0.6621 -0.7494 -0.0000
vn 0.6620 -0.7495 -0.0000
vn 0.0003 -1.0000 -0.0000
vn -0.0003 -1.0000 -0.0000
vn 0.6621 -0.7494 -0.0000
vn -0.0000 -0.0007 -1.0000
vn -0.0000 0.0009 -1.0000
vn -0.0000 -0.0009 -1.0000
vn -0.0000 0.0007 -1.0000
vn 0.7834 0.6215 -0.0000
vn 0.9449 0.3273 -0.0000
vn 0.9450 0.3271 -0.0000
vn 0.9974 -0.0723 -0.0000
vn 0.9974 -0.0724 -0.0000
vn 0.9942 -0.1075 -0.0000
vn 0.9944 -0.1060 -0.0000
vn 0.9943 -0.1063 -0.0000
vn 0.6067 -0.7949 -0.0000
vn 0.6066 -0.7950 -0.0000
vt 24.017099 -30.882999
vt 23.957199 -30.923401
vt 24.042801 -30.923401
vt 23.982901 -30.882999
vt 23.965799 -30.942400
vt 24.034201 -30.942400
vt 23.965799 -31.088499
vt 24.034201 -31.088499
vt 23.965799 -31.102900
vt 24.034201 -31.102900
vt 23.965799 -31.117001
vt 24.034201 -31.117001
vt 24.025000 -31.017099
vt 24.025000 -30.982901
vt 24.002300 -31.017099
vt 24.002300 -30.982901
vt 24.001900 -31.117001
vt 23.981100 -31.102900
vt 23.979200 -31.117001
vt 24.003901 -31.102900
vt 23.981800 -31.088499
vt 24.004499 -31.088499
vt 24.002300 -30.942400
vt 24.025000 -30.942400
vt 24.025000 -30.923401
vt 24.002300 -30.923401
vt 23.997700 -30.882999
vt 23.975000 -30.882999
vt 24.001900 -31.034201
vt 24.001900 -30.965799
vt 23.979200 -31.034201
vt 23.979200 -30.965799
vt 24.018900 -31.102900
vt 23.998100 -31.117001
vt 24.020800 -31.117001
vt 23.996099 -31.102900
vt 24.018200 -31.088499
vt 23.995501 -31.088499
vt 23.997700 -30.942400
vt 23.975000 -30.942400
vt 23.997700 -30.923401
vt 23.975000 -30.923401
vt 24.002300 -30.882999
vt 24.025000 -30.882999
vt 5.967270 -10.951300
vt 6.032730 -10.944800
vt 5.967270 -10.944800
vt 6.032730 -10.951300
vt 5.967270 -10.957800
vt 6.032730 -10.957800
vt 5.967270 -10.970800
vt 6.032730 -10.964300
vt 5.967270 -10.964300
vt 6.032730 -10.970800
vt 5.967270 -10.977300
vt 6.032730 -10.977300
vt 5.967270 -11.048700
vt 6.032730 -11.042200
vt 5.967270 -11.042200
vt 6.032730 -11.048700
vt 5.967270 -11.055200
vt 6.032730 -11.055200
vt 5.918830 -11.032700
vt 5.912340 -10.967300
vt 5.912340 -11.032700
vt 5.918830 -10.967300
vt 5.905850 -10.967300
vt 5.905850 -11.032700
vt 6.094150 -11.032700
vt 6.087660 -10.967300
vt 6.087660 -11.032700
vt 6.094150 -10.967300
vt 6.081170 -10.967300
vt 6.081170 -11.032700
vt 5.928570 -11.032700
vt 5.922080 -10.967300
vt 5.922080 -11.032700
vt 5.928570 -10.967300
vt 5.915590 -10.967300
vt 5.915590 -11.032700
vt 6.071430 -11.055200
vt 6.077920 -11.039500
vt 6.068750 -11.048700
vt 6.087100 -11.048700
vt 6.077920 -11.057900
vt 6.084410 -11.055200
vt 6.084410 -11.042200
vt 6.071430 -11.042200
vt 5.905850 -10.977300
vt 5.905850 -10.964300
vt 5.903160 -10.970800
vt 5.921510 -10.970800
vt 5.912340 -10.980000
vt 5.918830 -10.977300
vt 5.912340 -10.961600
vt 5.918830 -10.964300
vt 6.081170 -10.957800
vt 6.087660 -10.942100
vt 6.078490 -10.951300
vt 6.094150 -10.957800
vt 6.087660 -10.960500
vt 6.096840 -10.951300
vt 6.094150 -10.944800
vt 6.081170 -10.944800
vt 6.077920 -11.032700
vt 6.071430 -10.967300
vt 6.071430 -11.032700
vt 6.077920 -10.967300
vt 6.084410 -11.032700
vt 6.084410 -10.967300
vt 5.912900 -11.048700
vt 5.922080 -11.039500
vt 5.915590 -11.042200
vt 5.928570 -11.055200
vt 5.922080 -11.057900
vt 5.915590 -11.055200
vt 5.931250 -11.048700
vt 5.928570 -11.042200
vt 6.078490 -10.970800
vt 6.087660 -10.961600
vt 6.081170 -10.964300
vt 6.094150 -10.964300
vt 6.094150 -10.977300
vt 6.087660 -10.980000
vt 6.081170 -10.977300
vt 6.096840 -10.970800
vt 5.903160 -10.951300
vt 5.912340 -10.942100
vt 5.905850 -10.944800
vt 5.905850 -10.957800
vt 5.918830 -10.957800
vt 5.912340 -10.960500
vt 5.921510 -10.951300
vt 5.918830 -10.944800
vt 35.984299 -2.872770
vt 36.039200 -2.911740
vt 36.015701 -2.872770
vt 35.960800 -2.911740
vt 35.968601 -2.930020
vt 36.031399 -2.930020
vt 35.968601 -3.070780
vt 36.031399 -3.070780
vt 35.968601 -3.084660
vt 36.031399 -3.084660
vt 35.968601 -3.098290
vt 36.031399 -3.098290
s 1
usemtl Meshpart1Mtl.028
f 1/1/1 3/2/2 2/3/3
f 3/2/2 1/1/1 4/4/4
f 2/3/3 3/2/2 5/5/5
f 5/5/5 6/6/6 2/3/3
f 5/5/5 7/7/7 6/6/6
f 8/8/7 6/6/6 7/7/7
f 8/8/7 7/7/7 9/9/7
f 9/9/7 10/10/7 8/8/7
f 10/10/7 9/9/7 11/11/8
f 11/11/8 12/12/8 10/10/7
f 14/13/9 15/14/10 13/15/11
f 13/15/11 15/14/10 16/16/12
f 17/17/13 19/18/14 18/19/15
f 19/18/14 17/17/13 20/20/14
f 20/20/14 21/21/14 19/18/14
f 21/21/14 20/20/14 22/22/14
f 22/22/14 23/23/16 21/21/14
f 23/23/16 22/22/14 24/24/17
f 23/23/16 24/24/17 25/25/18
f 23/23/16 25/25/18 26/26/19
f 25/25/18 27/27/20 26/26/19
f 28/28/21 26/26/19 27/27/20
f 29/4/22 31/3/23 30/1/22
f 31/3/23 29/4/22 32/2/24
f 31/3/23 32/2/24 33/6/25
f 33/6/25 32/2/24 34/5/26
f 34/5/26 35/8/27 33/6/25
f 34/5/26 36/7/28 35/8/27
f 36/7/28 37/10/29 35/8/27
f 37/10/29 36/7/28 38/9/30
f 38/9/30 39/12/31 37/10/29
f 40/11/31 39/12/31 38/9/30
f 41/29/32 43/30/33 42/31/34
f 42/31/34 43/30/33 44/32/35
f 45/33/36 46/34/37 49/35/38
f 45/33/36 47/36/36 46/34/37
f 48/37/36 47/36/36 45/33/36
f 48/37/36 50/38/36 47/36/36
f 50/38/36 48/37/36 51/39/39
f 52/40/40 50/38/36 51/39/39
f 53/41/41 52/40/40 51/39/39
f 53/41/41 54/42/42 52/40/40
f 53/41/41 55/43/43 54/42/42
f 55/43/43 53/41/41 56/44/44
f 70/45/45 71/46/46 69/47/47
f 71/46/46 70/45/45 72/48/45
f 73/49/48 72/48/45 70/45/45
f 72/48/45 73/49/48 74/50/49
f 76/51/45 77/52/46 75/53/50
f 77/52/46 76/51/45 78/54/45
f 79/55/48 78/54/45 76/51/45
f 78/54/45 79/55/48 80/56/51
f 82/57/45 83/58/52 81/59/50
f 83/58/52 82/57/45 84/60/45
f 85/61/48 84/60/45 82/57/45
f 84/60/45 85/61/48 86/62/48
f 87/63/53 89/64/54 88/65/54
f 89/64/54 87/63/53 90/66/55
f 91/67/56 88/65/54 89/64/54
f 88/65/54 91/67/56 92/68/57
f 93/69/53 95/70/58 94/71/58
f 95/70/58 93/69/53 96/72/55
f 97/73/57 94/71/58 95/70/58
f 94/71/58 97/73/57 98/74/59
f 99/75/53 101/76/60 100/77/60
f 101/76/60 99/75/53 102/78/61
f 103/79/57 100/77/60 101/76/60
f 100/77/60 103/79/57 104/80/59
f 105/81/62 107/82/14 106/83/14
f 105/81/62 108/84/14 107/82/14
f 109/85/63 108/84/14 105/81/62
f 108/84/14 109/85/63 110/86/14
f 107/82/14 108/84/14 111/87/14
f 106/83/14 107/82/14 112/88/14
f 113/89/62 115/90/64 114/91/14
f 113/89/62 116/92/14 115/90/64
f 117/93/63 116/92/14 113/89/62
f 116/92/14 117/93/63 118/94/14
f 115/90/64 116/92/14 119/95/65
f 119/95/65 116/92/14 120/96/14
f 121/97/14 123/98/14 122/99/14
f 123/98/14 121/97/14 124/100/14
f 124/100/14 121/97/14 125/101/14
f 123/98/14 124/100/14 126/102/14
f 123/98/14 126/102/14 127/103/14
f 122/99/14 123/98/14 128/104/14
f 130/45/66 131/46/67 129/47/67
f 131/46/67 130/45/66 132/48/66
f 133/49/68 132/48/66 130/45/66
f 132/48/66 133/49/68 134/50/69
f 136/51/66 137/52/70 135/53/71
f 137/52/70 136/51/66 138/54/66
f 139/55/72 138/54/66 136/51/66
f 138/54/66 139/55/72 140/56/69
f 142/57/66 143/58/67 141/59/71
f 143/58/67 142/57/66 144/60/66
f 145/61/69 144/60/66 142/57/66
f 144/60/66 145/61/69 146/62/69
f 148/71/73 149/73/74 147/74/75
f 149/73/74 148/71/73 150/70/73
f 150/70/73 152/69/76 151/72/76
f 152/69/76 150/70/73 148/71/73
f 154/65/77 155/67/74 153/68/75
f 155/67/74 154/65/77 156/64/73
f 156/64/73 158/63/76 157/66/76
f 158/63/76 156/64/73 154/65/77
f 160/105/78 161/106/74 159/107/75
f 161/106/74 160/105/78 162/108/78
f 162/108/78 164/109/79 163/110/76
f 164/109/79 162/108/78 160/105/78
f 165/111/36 167/112/36 166/113/36
f 165/111/36 168/114/36 167/112/36
f 168/114/36 165/111/36 169/115/36
f 169/115/36 165/111/36 170/116/80
f 171/117/36 167/112/36 168/114/36
f 167/112/36 171/117/36 172/118/81
f 173/119/36 175/120/36 174/121/36
f 175/120/36 173/119/36 176/122/36
f 173/119/36 177/123/36 176/122/36
f 177/123/36 173/119/36 178/124/36
f 178/124/36 173/119/36 179/125/82
f 176/122/36 177/123/36 180/126/36
f 181/127/36 183/128/36 182/129/36
f 184/130/36 183/128/36 181/127/36
f 185/131/36 183/128/36 184/130/36
f 185/131/36 184/130/36 186/132/36
f 187/133/36 183/128/36 185/131/36
f 183/128/36 187/133/36 188/134/83
usemtl Meshpart4Mtl.025
f 57/135/84 59/136/85 58/137/84
f 60/138/86 59/136/85 57/135/84
f 59/136/85 60/138/86 61/139/87
f 61/139/87 62/140/88 59/136/85
f 61/139/87 63/141/89 62/140/88
f 64/142/89 62/140/88 63/141/89
f 64/142/89 63/141/89 65/143/90
f 65/143/90 66/144/91 64/142/89
f 66/144/91 65/143/90 67/145/92
f 67/145/92 68/146/93 66/144/91
o RenderMesh_18687757424.001
v -0.358754 0.086071 0.088955
v -0.244830 0.035971 0.099534
v -0.244830 0.086071 0.088955
v -0.358754 0.035971 0.099534
v -0.358754 0.086071 0.088955
v -0.271072 0.096861 0.135308
v -0.288352 0.100058 0.149039
v -0.244830 0.086071 0.088955
v -0.244830 0.094518 0.125242
v -0.257497 0.096861 0.135308
v -0.358754 0.113087 0.205015
v -0.288352 0.113087 0.205015
v -0.342198 0.116150 0.218172
v -0.304907 0.116150 0.218172
v -0.358754 0.035971 0.099534
v -0.358754 0.062987 0.215593
v -0.288352 0.049957 0.159617
v -0.288352 0.062987 0.215593
v -0.304907 0.066049 0.228749
v -0.342198 0.066049 0.228749
v -0.271072 0.046761 0.145887
v -0.244830 0.035971 0.099534
v -0.244830 0.044418 0.135820
v -0.257497 0.046761 0.145887
v -0.244830 0.035971 0.099534
v -0.244830 0.094518 0.125242
v -0.244830 0.086071 0.088955
v -0.244830 0.044418 0.135820
v -0.257497 0.096861 0.135308
v -0.257497 0.046761 0.145887
v -0.271072 0.046761 0.145887
v -0.271072 0.096861 0.135308
v -0.288352 0.049957 0.159617
v -0.288352 0.100058 0.149039
v -0.288352 0.062987 0.215593
v -0.288352 0.113087 0.205015
v -0.304907 0.116150 0.218172
v -0.304907 0.066049 0.228749
v -0.342198 0.066049 0.228749
v -0.342198 0.116150 0.218172
v -0.358754 0.062987 0.215593
v -0.358754 0.113087 0.205015
v -0.358754 0.086071 0.088955
v -0.358754 0.035971 0.099534
v 0.396924 0.096672 0.030353
v -0.369423 0.096672 0.030353
v -0.369423 0.036649 0.030353
v 0.396924 0.036649 0.030353
v -0.369423 0.036670 0.035950
v 0.396924 0.096695 0.035950
v 0.396924 0.036670 0.035950
v -0.369423 0.096694 0.035950
v 0.396924 0.096672 0.089164
v 0.396924 0.066658 0.103156
v -0.369423 0.096672 0.089164
v -0.369423 0.066658 0.103156
v 0.396924 0.036649 0.093714
v -0.369423 0.036649 0.093714
v 0.863265 0.225609 -0.027942
v 0.572886 0.225609 -0.027942
v 0.572886 0.180894 -0.044664
v 0.896762 0.180894 -0.044664
v -0.384724 0.225608 -0.027942
v -0.485214 0.180894 -0.044664
v -0.485214 0.067684 -0.107751
v 0.572886 0.067685 -0.107751
v -0.485214 0.012082 -0.086088
v 0.572886 0.012083 -0.086088
v -0.249875 0.153849 0.065156
v -0.249875 0.197294 0.042728
v -0.080885 0.197294 0.042728
v -0.266775 0.175570 0.054139
v -0.080885 0.153849 0.065156
v -0.063987 0.175570 0.054139
v 0.788789 0.272835 -0.019964
v 0.788789 0.220547 -0.019964
v 0.788789 0.272835 0.019558
v 0.788789 0.280865 0.024103
v 0.788789 0.280865 -0.024533
v 0.788789 0.302316 -0.000203
v 0.788789 0.307799 -0.013516
v 0.788789 0.321038 -0.018827
v 0.788789 0.334346 -0.024533
v 0.788789 0.336204 -0.018827
v 0.788789 0.344481 -0.014258
v 0.788789 0.339761 -0.000203
v 0.788789 0.344481 0.013853
v 0.788789 0.334278 -0.013516
v 0.788789 0.336204 0.018422
v 0.788789 0.334346 0.024103
v 0.788789 0.334278 0.013087
v 0.788789 0.321038 0.018422
v 0.788789 0.307799 0.013087
v 0.788789 0.220547 0.019558
v 0.572886 0.067685 -0.107751
v 0.572886 0.012083 -0.086088
v 0.572886 0.067685 0.106950
v 0.572886 0.180894 -0.044664
v 0.572886 0.180894 0.043493
v 0.572886 0.012083 0.085288
v 0.805689 0.268682 -0.024904
v 0.828005 0.239072 -0.015024
v 0.805689 0.268682 -0.015024
v 0.828005 0.239072 -0.024904
v 0.828005 0.222079 -0.024904
v 0.828005 0.222079 -0.015024
v 0.805689 0.268682 0.014618
v 0.828005 0.239072 0.024498
v 0.805689 0.268682 0.024498
v 0.828005 0.239072 0.014618
v 0.828005 0.222079 0.014618
v 0.828005 0.222079 0.024498
v 0.863265 0.225609 0.027142
v 0.896762 0.180894 0.043493
v 0.863265 0.225609 -0.027942
v 0.896762 0.180894 -0.044664
v -0.210358 0.239072 0.024498
v -0.210358 0.239072 0.014618
v -0.210358 0.222079 0.014618
v -0.210358 0.222079 0.024498
v -0.210358 0.239072 -0.015024
v -0.210358 0.239072 -0.024904
v -0.210358 0.222079 -0.024904
v -0.210358 0.222079 -0.015024
v -0.283587 -0.133294 0.030204
v -0.269355 -0.133294 -0.000203
v -0.283587 -0.063359 0.030204
v -0.269355 -0.063359 -0.000203
v -0.283587 -0.133294 -0.030610
v -0.283587 -0.063359 -0.030610
v -0.293564 0.321555 0.001699
v -0.293564 0.321555 -0.002104
v -0.289994 0.300477 -0.005143
v -0.289994 0.300477 0.004737
v -0.282900 0.302342 -0.000203
v -0.282900 0.307746 -0.013121
v -0.282900 0.280340 -0.023767
v -0.282900 0.273074 -0.019964
v -0.282900 0.273074 0.019558
v -0.282900 0.280340 0.023362
v -0.282900 0.307746 0.012716
v -0.282900 0.322691 0.023362
v -0.282900 0.320794 0.018422
v -0.282900 0.322691 0.017656
v -0.282900 0.220376 -0.019964
v -0.282900 0.220376 0.019558
v -0.282900 0.322691 -0.023767
v -0.282900 0.320794 -0.018827
v -0.282900 0.322691 -0.017691
v -0.377457 0.036646 0.014989
v -0.377457 0.036646 0.094797
v -0.377457 0.098711 0.089463
v -0.377457 0.098711 0.014989
v -0.377457 0.067684 0.106950
v -1.101879 0.064348 -0.040119
v -1.101879 0.047856 -0.000203
v -1.101879 0.064348 0.039689
v -1.101879 0.143969 -0.040119
v -1.101879 0.104156 -0.056447
v -1.101879 0.143969 0.039689
v -1.101879 0.160461 -0.000203
v -1.101879 0.104156 0.056041
v -1.336012 0.075710 0.028302
v -1.336012 0.063926 -0.000203
v -1.130086 0.075710 0.028302
v -1.130086 0.063926 -0.000203
v -1.336012 0.075710 -0.028707
v -1.130086 0.075710 -0.028707
v 0.788789 0.344481 -0.014258
v 0.763935 0.344481 0.013853
v 0.763935 0.344481 -0.014258
v 0.788789 0.344481 0.013853
v -0.308786 0.322691 -0.023767
v -0.282900 0.322691 -0.023767
v -0.282900 0.322691 -0.017691
v -0.308786 0.322691 -0.017691
v -0.308786 0.322691 0.023362
v -0.308786 0.322691 0.017656
v -0.282900 0.322691 0.023362
v -0.282900 0.322691 0.017656
v -0.293564 0.321555 -0.002104
v -0.297605 0.321555 0.001699
v -0.297605 0.321555 -0.002104
v -0.293564 0.321555 0.001699
v 0.788789 0.334346 -0.024533
v 0.763935 0.344481 -0.014258
v 0.763935 0.334346 -0.024533
v 0.788789 0.344481 -0.014258
v -0.308786 0.307746 0.012716
v -0.282900 0.302342 -0.000203
v -0.282900 0.307746 0.012716
v -0.308786 0.302342 -0.000203
v -0.308786 0.307746 -0.013121
v -0.282900 0.307746 -0.013121
v 0.788789 0.344481 0.013853
v 0.763935 0.334346 0.024103
v 0.763935 0.344481 0.013853
v 0.788789 0.334346 0.024103
v 0.788789 0.302316 -0.000203
v 0.788789 0.307799 0.013087
v 0.763935 0.302316 -0.000203
v 0.763935 0.307799 0.013087
v 0.788789 0.307799 -0.013516
v 0.788789 0.302316 -0.000203
v 0.763935 0.307799 -0.013516
v 0.763935 0.302316 -0.000203
v -0.255036 0.268681 0.014618
v -0.321901 0.268681 0.024498
v -0.321901 0.268681 0.014618
v -0.255036 0.268681 0.024498
v -0.321901 0.268681 -0.024904
v -0.255036 0.268681 -0.024904
v -0.255036 0.268681 -0.015024
v -0.321901 0.268681 -0.015024
v 0.694103 0.239072 -0.024904
v 0.694103 0.239072 -0.015024
v 0.738781 0.268682 -0.015024
v 0.738781 0.268682 -0.024904
v 0.805689 0.268682 -0.024904
v 0.805689 0.268682 -0.015024
v 0.694103 0.239072 0.014618
v 0.694103 0.239072 0.024498
v 0.738781 0.268682 0.024498
v 0.738781 0.268682 0.014618
v 0.805689 0.268682 0.014618
v 0.805689 0.268682 0.024498
v -1.110477 0.134822 -0.030981
v -0.464488 0.134823 -0.030981
v -0.464488 0.147526 -0.000203
v -1.110477 0.147526 -0.000203
v -0.464488 0.134823 0.030575
v -1.110477 0.134822 0.030575
v -1.101879 0.143969 0.039689
v -1.101879 0.160461 -0.000203
v -1.336012 0.143969 0.039689
v -1.336012 0.160461 -0.000203
v -1.101879 0.143969 -0.040119
v -1.336012 0.143969 -0.040119
v -0.255036 0.268681 0.014618
v -0.210358 0.239072 0.014618
v -0.210358 0.239072 0.024498
v -0.255036 0.268681 0.024498
v -0.255036 0.268681 -0.024904
v -0.210358 0.239072 -0.024904
v -0.210358 0.239072 -0.015024
v -0.255036 0.268681 -0.015024
v -0.384724 0.225608 -0.027942
v -0.485214 0.180894 0.043493
v -0.485214 0.180894 -0.044664
v -0.384724 0.225608 0.027142
v 0.572886 0.225609 0.027142
v 0.572886 0.225609 -0.027942
v 0.863265 0.225609 0.027142
v 0.863265 0.225609 -0.027942
v -0.377457 0.036646 0.014989
v 0.388890 0.036646 0.014989
v 0.388890 0.036646 0.094797
v -0.377457 0.036646 0.094797
v -0.502285 0.012082 -0.095968
v -0.217883 0.012082 -0.095968
v -0.217883 0.012082 0.094797
v -0.502285 0.012082 0.094797
v -1.336012 0.075710 -0.028707
v -1.130086 0.075710 -0.028707
v -1.336012 0.104156 -0.040490
v -1.130086 0.104156 -0.040490
v -1.336012 0.132607 -0.028707
v -1.130086 0.132607 -0.028707
v -0.308786 0.307746 -0.013121
v -0.282900 0.307746 -0.013121
v -0.308786 0.320794 -0.018827
v -0.282900 0.320794 -0.018827
v -0.308786 0.322691 -0.017691
v -0.282900 0.322691 -0.017691
v -0.217883 0.012082 0.094797
v -0.217883 -0.068383 0.094797
v -0.446472 -0.068383 0.094797
v -0.502285 0.012082 0.094797
v -0.485214 0.067684 0.106950
v -0.377457 0.067684 0.106950
v -0.377457 0.036646 0.094797
v -0.377457 0.098711 0.089463
v -0.485214 0.012082 0.085288
v -0.485214 0.180894 0.043493
v 0.388890 0.098712 0.089463
v 0.572886 0.180894 0.043493
v -0.384724 0.225608 0.027142
v 0.572886 0.225609 0.027142
v 0.863265 0.225609 0.027142
v 0.896762 0.180894 0.043493
v 0.572886 0.067685 0.106950
v 0.572886 0.012083 0.085288
v 0.388890 0.036646 0.094797
v 0.388890 0.067685 0.106950
v 0.763935 0.307799 -0.013516
v 0.788789 0.321038 -0.018827
v 0.788789 0.307799 -0.013516
v 0.763935 0.321038 -0.018827
v -0.255036 0.268681 0.024498
v -0.210358 0.222079 0.024498
v -0.344261 0.222079 0.024498
v -0.210358 0.239072 0.024498
v -0.321901 0.268681 0.024498
v -0.344261 0.239072 0.024498
v 0.828005 0.222079 0.024498
v 0.738781 0.268682 0.024498
v 0.805689 0.268682 0.024498
v 0.828005 0.239072 0.024498
v 0.694103 0.222079 0.024498
v 0.694103 0.239072 0.024498
v 0.788789 0.280865 0.024103
v 0.763935 0.280865 0.024103
v 0.788789 0.334346 0.024103
v 0.763935 0.334346 0.024103
v 0.763935 0.272835 0.019558
v 0.788789 0.220547 0.019558
v 0.763935 0.220547 0.019558
v 0.788789 0.272835 0.019558
v -0.297605 0.321555 0.001699
v -0.289994 0.300477 0.004737
v -0.301131 0.300477 0.004737
v -0.293564 0.321555 0.001699
v -0.464488 0.134823 0.030575
v -0.464488 0.104156 0.043122
v -1.110477 0.134822 0.030575
v -1.110477 0.104156 0.043122
v -0.464488 0.073494 0.030575
v -1.110477 0.073494 0.030575
v -1.336012 0.064348 0.039689
v -1.101879 0.104156 0.056041
v -1.101879 0.064348 0.039689
v -1.336012 0.104156 0.056041
v -1.101879 0.143969 0.039689
v -1.336012 0.143969 0.039689
v -0.255036 0.268681 -0.015024
v -0.210358 0.222079 -0.015024
v -0.344261 0.222079 -0.015024
v -0.210358 0.239072 -0.015024
v -0.321901 0.268681 -0.015024
v -0.344261 0.239072 -0.015024
v 0.828005 0.222079 -0.015024
v 0.738781 0.268682 -0.015024
v 0.805689 0.268682 -0.015024
v 0.828005 0.239072 -0.015024
v 0.694103 0.222079 -0.015024
v 0.694103 0.239072 -0.015024
v 0.763935 0.272835 0.019558
v 0.788789 0.280865 0.024103
v 0.788789 0.272835 0.019558
v 0.763935 0.280865 0.024103
v -0.308786 0.273074 0.019558
v -0.282900 0.220376 0.019558
v -0.308786 0.220376 0.019558
v -0.282900 0.273074 0.019558
v -0.282900 0.280340 0.023362
v -0.308786 0.280340 0.023362
v -0.282900 0.322691 0.023362
v -0.308786 0.322691 0.023362
v 0.788789 0.321038 -0.018827
v 0.763935 0.321038 -0.018827
v 0.763935 0.334278 -0.013516
v 0.788789 0.334278 -0.013516
v -0.352216 -0.063359 0.030204
v -0.317902 -0.133294 0.042728
v -0.352216 -0.133294 0.030204
v -0.317902 -0.063359 0.042728
v -0.283587 -0.133294 0.030204
v -0.283587 -0.063359 0.030204
v -1.336012 0.160461 -0.000203
v -1.336012 0.143969 0.039689
v -1.336012 0.132607 0.028302
v -1.336012 0.144391 -0.000203
v -1.336012 0.132607 -0.028707
v -1.336012 0.143969 -0.040119
v -1.336012 0.104156 -0.040490
v -1.336012 0.104156 -0.056447
v -1.336012 0.064348 -0.040119
v -1.336012 0.075710 -0.028707
v -1.336012 0.047856 -0.000203
v -1.336012 0.075710 0.028302
v -1.336012 0.064348 0.039689
v -1.336012 0.063926 -0.000203
v -1.336012 0.104156 0.040084
v -1.336012 0.104156 0.056041
v -1.130086 0.132607 0.028302
v -1.130086 0.104156 0.040084
v -1.130086 0.075710 0.028302
v -1.130086 0.063926 -0.000203
v -1.130086 0.144391 -0.000203
v -1.130086 0.132607 -0.028707
v -1.130086 0.075710 -0.028707
v -1.130086 0.104156 -0.040490
v -0.446472 -0.068383 -0.095968
v -0.502285 0.012082 -0.095968
v -0.502285 0.012082 0.094797
v -0.446472 -0.068383 0.094797
v -0.344261 0.239072 0.014618
v -0.344261 0.222079 0.024498
v -0.344261 0.222079 0.014618
v -0.344261 0.239072 0.024498
v -0.344261 0.239072 -0.024904
v -0.344261 0.222079 -0.015024
v -0.344261 0.222079 -0.024904
v -0.344261 0.239072 -0.015024
v -0.344261 0.239072 0.024498
v -0.344261 0.239072 0.014618
v -0.321901 0.268681 0.024498
v -0.321901 0.268681 0.014618
v -0.344261 0.239072 -0.015024
v -0.344261 0.239072 -0.024904
v -0.321901 0.268681 -0.015024
v -0.321901 0.268681 -0.024904
v -0.297605 0.321555 -0.002104
v -0.301131 0.300477 0.004737
v -0.301131 0.300477 -0.005143
v -0.297605 0.321555 0.001699
v -0.308786 0.273074 -0.019964
v -0.308786 0.280340 -0.023767
v -0.308786 0.302342 -0.000203
v -0.308786 0.273074 0.019558
v -0.308786 0.220376 -0.019964
v -0.308786 0.220376 0.019558
v -0.308786 0.280340 0.023362
v -0.308786 0.307746 0.012716
v -0.308786 0.322691 0.023362
v -0.308786 0.320794 0.018422
v -0.308786 0.322691 0.017656
v -0.308786 0.307746 -0.013121
v -0.308786 0.322691 -0.023767
v -0.308786 0.320794 -0.018827
v -0.308786 0.322691 -0.017691
v 0.694103 0.239072 -0.024904
v 0.694103 0.222079 -0.015024
v 0.694103 0.222079 -0.024904
v 0.694103 0.239072 -0.015024
v 0.694103 0.239072 0.014618
v 0.694103 0.222079 0.024498
v 0.694103 0.222079 0.014618
v 0.694103 0.239072 0.024498
v -0.485214 0.180894 -0.044664
v -0.485214 0.180894 0.043493
v -0.485214 0.067684 0.106950
v -0.485214 0.067684 -0.107751
v -0.485214 0.012082 -0.086088
v -0.485214 0.012082 0.085288
v -0.352216 -0.063359 0.030204
v -0.366405 -0.063359 -0.000203
v -0.352216 -0.133294 0.030204
v -0.366405 -0.133294 -0.000203
v -0.352216 -0.063359 -0.030610
v -0.352216 -0.133294 -0.030610
v 0.388890 0.036646 0.014989
v 0.388890 0.098712 0.014989
v 0.388890 0.098712 0.089463
v 0.388890 0.036646 0.094797
v 0.388890 0.067685 0.106950
v 0.763935 0.272835 -0.019964
v 0.763935 0.220547 0.019558
v 0.763935 0.220547 -0.019964
v 0.763935 0.272835 0.019558
v 0.763935 0.280865 -0.024533
v 0.763935 0.280865 0.024103
v 0.763935 0.302316 -0.000203
v 0.763935 0.307799 -0.013516
v 0.763935 0.321038 -0.018827
v 0.763935 0.334346 -0.024533
v 0.763935 0.336204 -0.018827
v 0.763935 0.344481 -0.014258
v 0.763935 0.344481 0.013853
v 0.763935 0.339761 -0.000203
v 0.763935 0.334278 -0.013516
v 0.763935 0.334278 0.013087
v 0.763935 0.321038 0.018422
v 0.763935 0.336204 0.018422
v 0.763935 0.334346 0.024103
v 0.763935 0.307799 0.013087
v -1.130086 0.132607 0.028302
v -1.336012 0.132607 0.028302
v -1.130086 0.144391 -0.000203
v -1.336012 0.144391 -0.000203
v -1.130086 0.132607 -0.028707
v -1.336012 0.132607 -0.028707
v 0.572886 0.180894 -0.044664
v 0.896762 0.180894 -0.044664
v 0.572886 0.180894 0.043493
v 0.896762 0.180894 0.043493
v -0.446472 -0.068383 -0.095968
v -0.446472 -0.068383 0.094797
v -0.217883 -0.068383 -0.095968
v -0.217883 -0.068383 0.094797
v 0.572886 0.012083 0.085288
v 0.572886 0.012083 -0.086088
v -0.485214 0.012082 0.085288
v -0.485214 0.012082 -0.086088
v -0.377457 0.098711 0.014989
v 0.388890 0.098712 0.089463
v 0.388890 0.098712 0.014989
v -0.377457 0.098711 0.089463
v -1.110477 0.073494 -0.030981
v -1.110477 0.060791 -0.000203
v -0.464488 0.073494 -0.030981
v -0.464488 0.060791 -0.000203
v -1.110477 0.073494 0.030575
v -0.464488 0.073494 0.030575
v -1.336012 0.064348 0.039689
v -1.336012 0.047856 -0.000203
v -1.101879 0.064348 0.039689
v -1.101879 0.047856 -0.000203
v -1.336012 0.064348 -0.040119
v -1.101879 0.064348 -0.040119
v 0.788789 0.220547 -0.019964
v 0.763935 0.220547 -0.019964
v 0.788789 0.220547 0.019558
v 0.763935 0.220547 0.019558
v -0.308786 0.220376 0.019558
v -0.308786 0.220376 -0.019964
v -0.282900 0.220376 0.019558
v -0.282900 0.220376 -0.019964
v 0.763935 0.339761 -0.000203
v 0.788789 0.334278 0.013087
v 0.788789 0.339761 -0.000203
v 0.763935 0.334278 0.013087
v 0.763935 0.334278 -0.013516
v 0.788789 0.339761 -0.000203
v 0.788789 0.334278 -0.013516
v 0.763935 0.339761 -0.000203
v -1.130086 0.132607 0.028302
v -1.336012 0.132607 0.028302
v -1.336012 0.104156 0.040084
v -1.130086 0.104156 0.040084
v -1.336012 0.075710 0.028302
v -1.130086 0.075710 0.028302
v -0.282900 0.320794 0.018422
v -0.308786 0.320794 0.018422
v -0.308786 0.307746 0.012716
v -0.282900 0.322691 0.017656
v -0.282900 0.307746 0.012716
v -0.308786 0.322691 0.017656
v -0.217883 -0.068383 -0.095968
v -0.217883 0.012082 -0.095968
v -0.446472 -0.068383 -0.095968
v -0.502285 0.012082 -0.095968
v 0.788789 0.321038 0.018422
v 0.763935 0.321038 0.018422
v 0.763935 0.307799 0.013087
v 0.788789 0.307799 0.013087
v -0.210358 0.222079 -0.024904
v -0.210358 0.239072 -0.024904
v -0.255036 0.268681 -0.024904
v -0.344261 0.222079 -0.024904
v -0.321901 0.268681 -0.024904
v -0.344261 0.239072 -0.024904
v 0.805689 0.268682 -0.024904
v 0.738781 0.268682 -0.024904
v 0.828005 0.222079 -0.024904
v 0.828005 0.239072 -0.024904
v 0.694103 0.222079 -0.024904
v 0.694103 0.239072 -0.024904
v 0.788789 0.334346 -0.024533
v 0.763935 0.334346 -0.024533
v 0.788789 0.280865 -0.024533
v 0.763935 0.280865 -0.024533
v 0.788789 0.272835 -0.019964
v 0.763935 0.272835 -0.019964
v 0.763935 0.220547 -0.019964
v 0.788789 0.220547 -0.019964
v -0.301131 0.300477 -0.005143
v -0.289994 0.300477 -0.005143
v -0.293564 0.321555 -0.002104
v -0.297605 0.321555 -0.002104
v -1.110477 0.134822 -0.030981
v -1.110477 0.104156 -0.043528
v -0.464488 0.134823 -0.030981
v -0.464488 0.104156 -0.043528
v -1.110477 0.073494 -0.030981
v -0.464488 0.073494 -0.030981
v -1.336012 0.064348 -0.040119
v -1.336012 0.104156 -0.056447
v -1.101879 0.064348 -0.040119
v -1.101879 0.104156 -0.056447
v -1.336012 0.143969 -0.040119
v -1.101879 0.143969 -0.040119
v -0.210358 0.222079 0.014618
v -0.210358 0.239072 0.014618
v -0.255036 0.268681 0.014618
v -0.344261 0.222079 0.014618
v -0.321901 0.268681 0.014618
v -0.344261 0.239072 0.014618
v 0.805689 0.268682 0.014618
v 0.738781 0.268682 0.014618
v 0.828005 0.222079 0.014618
v 0.828005 0.239072 0.014618
v 0.694103 0.222079 0.014618
v 0.694103 0.239072 0.014618
v 0.763935 0.280865 -0.024533
v 0.788789 0.272835 -0.019964
v 0.788789 0.280865 -0.024533
v 0.763935 0.272835 -0.019964
v 0.788789 0.334278 0.013087
v 0.763935 0.334278 0.013087
v 0.763935 0.321038 0.018422
v 0.788789 0.321038 0.018422
v -0.308786 0.220376 -0.019964
v -0.282900 0.220376 -0.019964
v -0.282900 0.273074 -0.019964
v -0.308786 0.273074 -0.019964
v -0.308786 0.280340 -0.023767
v -0.282900 0.280340 -0.023767
v -0.308786 0.322691 -0.023767
v -0.282900 0.322691 -0.023767
v -0.352216 -0.063359 -0.030610
v -0.317902 -0.063359 -0.043157
v -0.352216 -0.133294 -0.030610
v -0.317902 -0.133294 -0.043157
v -0.283587 -0.063359 -0.030610
v -0.283587 -0.133294 -0.030610
v 0.388890 0.098688 0.008912
v 0.388890 0.036624 0.008912
v 0.388890 0.098688 0.072763
v 0.388890 0.036624 0.077704
v 0.388890 0.067654 0.087955
v 0.144090 0.197295 0.042728
v 0.144090 0.197295 -0.043528
v 0.160990 0.175571 -0.054916
v 0.160990 0.175571 0.054139
v 0.160990 0.175571 -0.054916
v 0.144090 0.153849 -0.066327
v 0.144090 0.153849 0.065156
v 0.160990 0.175571 0.054139
v -0.080885 0.197294 0.042728
v -0.080885 0.197294 -0.043528
v -0.063987 0.175570 -0.054916
v -0.063987 0.175570 0.054139
v -0.063987 0.175570 -0.054916
v -0.080885 0.153849 -0.066327
v -0.080885 0.153849 0.065156
v -0.063987 0.175570 0.054139
v 0.144090 0.197295 -0.043528
v -0.024900 0.197295 0.042728
v -0.024900 0.197295 -0.043528
v 0.144090 0.197295 0.042728
v -0.080885 0.197294 -0.043528
v -0.249875 0.197294 0.042728
v -0.249875 0.197294 -0.043528
v -0.080885 0.197294 0.042728
v 0.388890 0.098688 0.008912
v -0.377457 0.098688 0.072763
v -0.377457 0.098688 0.008912
v 0.388890 0.098688 0.072763
v 1.394100 0.157255 0.071233
v 1.394100 0.095189 0.108853
v 0.962810 0.157255 0.071233
v 0.962810 0.095189 0.108853
v 1.394100 0.157255 -0.072404
v 1.394100 0.095189 -0.110024
v 1.394100 0.095189 0.108853
v 1.394100 0.157255 0.071233
v 1.059818 -0.000670 -0.101674
v 1.059818 -0.062735 -0.101674
v 1.059818 -0.000670 0.100874
v 1.059818 -0.062735 0.100874
v 1.394100 0.157255 -0.072404
v 0.962810 0.157255 0.071233
v 0.962810 0.157255 -0.072404
v 1.394100 0.157255 0.071233
v 1.059818 -0.000670 -0.101674
v 0.863093 -0.000670 0.100874
v 0.863093 -0.000670 -0.101674
v 1.059818 -0.000670 0.100874
v 1.059818 -0.000670 0.100874
v 1.059818 -0.062735 0.100874
v 0.863093 -0.000670 0.100874
v 0.863093 -0.062735 0.100874
v 0.863093 -0.062735 -0.101674
v 0.863093 -0.000670 -0.101674
v 0.863093 -0.062735 0.100874
v 0.863093 -0.000670 0.100874
v 0.863093 -0.062735 -0.101674
v 1.059818 -0.062735 0.100874
v 1.059818 -0.062735 -0.101674
v 0.863093 -0.062735 0.100874
v 0.962810 0.095189 -0.110024
v 1.394100 0.095189 0.108853
v 1.394100 0.095189 -0.110024
v 0.962810 0.095189 0.108853
v 1.059818 -0.000670 -0.101674
v 0.863093 -0.000670 -0.101674
v 0.863093 -0.062735 -0.101674
v 1.059818 -0.062735 -0.101674
v 1.394100 0.157255 -0.072404
v 0.962810 0.157255 -0.072404
v 0.962810 0.095189 -0.110024
v 1.394100 0.095189 -0.110024
v -0.024900 0.153849 0.065156
v -0.024900 0.197295 0.042728
v 0.144090 0.197295 0.042728
v -0.041798 0.175571 0.054139
v 0.144090 0.153849 0.065156
v 0.160990 0.175571 0.054139
v -0.377457 0.036624 0.008912
v -0.377457 0.098688 0.008912
v -0.377457 0.098688 0.072763
v -0.377457 0.036624 0.077704
v -0.377457 0.067654 0.087955
v -0.266775 0.175570 -0.054916
v -0.249875 0.197294 -0.043528
v -0.249875 0.197294 0.042728
v -0.266775 0.175570 0.054139
v -0.249875 0.153849 -0.066327
v -0.266775 0.175570 -0.054916
v -0.249875 0.153849 0.065156
v -0.266775 0.175570 0.054139
v -0.041798 0.175571 -0.054916
v -0.024900 0.197295 -0.043528
v -0.024900 0.197295 0.042728
v -0.041798 0.175571 0.054139
v -0.024900 0.153849 -0.066327
v -0.041798 0.175571 -0.054916
v -0.024900 0.153849 0.065156
v -0.041798 0.175571 0.054139
v 0.962810 0.095189 -0.110024
v 0.962810 0.157255 -0.072404
v 0.962810 0.157255 0.071233
v 0.962810 0.095189 0.108853
v -0.377457 0.036624 0.008912
v 0.388890 0.036624 0.077704
v 0.388890 0.036624 0.008912
v -0.377457 0.036624 0.077704
v -0.024900 0.153849 -0.066327
v 0.144090 0.153849 0.065156
v 0.144090 0.153849 -0.066327
v -0.024900 0.153849 0.065156
v -0.249875 0.153849 -0.066327
v -0.080885 0.153849 0.065156
v -0.080885 0.153849 -0.066327
v -0.249875 0.153849 0.065156
v -0.024900 0.197295 -0.043528
v -0.041798 0.175571 -0.054916
v -0.024900 0.153849 -0.066327
v 0.144090 0.153849 -0.066327
v 0.144090 0.197295 -0.043528
v 0.160990 0.175571 -0.054916
v -0.249875 0.197294 -0.043528
v -0.266775 0.175570 -0.054916
v -0.249875 0.153849 -0.066327
v -0.080885 0.153849 -0.066327
v -0.080885 0.197294 -0.043528
v -0.063987 0.175570 -0.054916
v -0.217883 0.012071 0.094797
v -0.217883 0.012071 -0.095968
v 0.438856 0.012072 0.094797
v 0.438856 0.012072 -0.095968
v 0.438856 0.012072 0.094797
v 0.438856 0.012072 -0.095968
v 0.438856 0.186116 -0.048097
v 0.438856 0.186116 0.047297
v 0.438856 0.067673 0.118733
v 0.438856 0.067673 -0.119533
v -0.217883 -0.068394 0.094797
v -0.137689 -0.067851 -0.095968
v -0.217883 -0.068394 -0.095968
v -0.137689 -0.067851 0.094797
vn -0.0000 -0.2066 -0.9784
vn -0.0000 0.9740 -0.2267
vn -0.0000 -0.9740 0.2267
vn 1.0000 -0.0000 -0.0000
vn 0.8916 0.0935 0.4430
vn 0.8917 0.0935 0.4429
vn 0.3201 0.1957 0.9269
vn 0.3201 0.1957 0.9270
vn -0.3201 0.1957 0.9269
vn -0.3201 0.1957 0.9270
vn -0.8917 0.0935 0.4429
vn -1.0000 -0.0000 -0.0000
vn -0.0000 -0.0000 1.0000
vn -0.0000 -0.0000 -1.0000
vn -0.0000 0.4230 0.9061
vn -0.0000 0.0747 0.9972
vn -0.0000 -0.3001 0.9539
vn -0.0000 0.3467 -0.9380
vn -0.0000 0.3937 -0.9192
vn -0.0000 0.3477 -0.9376
vn -0.0000 0.3458 -0.9383
vn -0.0000 0.4564 -0.8898
vn -0.0000 0.0700 -0.9975
vn -0.0000 0.0704 -0.9975
vn -0.0000 -0.3630 -0.9318
vn 0.7571 -0.6533 -0.0000
vn 0.9459 0.3244 -0.0000
vn 0.4272 0.9042 -0.0000
vn 0.4269 0.9043 -0.0000
vn 0.9461 0.3239 -0.0000
vn 0.8009 0.5988 -0.0000
vn 0.4662 0.8847 -0.0000
vn 0.8010 0.5987 -0.0000
vn 0.6623 -0.0000 0.7492
vn 0.6623 -0.0000 -0.7492
vn 0.9859 0.1676 -0.0000
vn 0.9860 0.1670 -0.0000
vn 0.9858 0.1679 -0.0000
vn -0.0000 0.7071 -0.7071
vn -0.5812 0.5753 -0.5755
vn -0.0000 1.0000 -0.0000
vn -0.5813 0.8137 0.0002
vn -0.0000 0.7074 0.7068
vn -0.5813 0.5751 0.5756
vn -0.0000 0.7068 -0.7074
vn -0.0000 1.0000 -0.0005
vn -0.0000 0.7072 -0.7070
vn -0.0000 0.7066 -0.7076
vn -0.0000 0.7067 0.7075
vn -0.0000 0.7078 0.7064
vn -0.0000 0.7071 0.7071
vn -0.0000 0.7060 0.7082
vn -0.0000 0.9229 -0.3851
vn -0.0000 0.9225 -0.3859
vn -0.0000 0.9227 -0.3856
vn -0.0000 0.9223 -0.3864
vn -0.0000 0.9226 0.3858
vn -0.0000 0.9222 0.3866
vn -0.0000 0.9224 0.3862
vn -0.0000 0.9221 0.3870
vn -0.8703 0.4926 -0.0000
vn -0.2825 0.9593 -0.0000
vn -0.2826 0.9592 -0.0000
vn 0.4278 0.9039 -0.0000
vn 0.0002 0.7072 -0.7070
vn -0.0000 0.7074 -0.7068
vn -0.0000 0.7069 0.7073
vn -0.0000 1.0000 0.0001
vn -0.0000 0.7073 0.7069
vn -0.0000 0.7073 -0.7069
vn 0.5499 0.8352 -0.0000
vn -0.2173 0.9761 -0.0000
vn -0.8867 0.4624 -0.0000
vn -0.8868 0.4622 -0.0000
vn -0.2171 0.9761 -0.0000
vn -0.5812 0.5757 0.5751
vn -0.0000 -0.0007 1.0000
vn -0.0000 0.7063 0.7079
vn -0.5813 0.0005 0.8137
vn -0.0000 -0.7071 0.7071
vn -0.5815 -0.5749 0.5757
vn -0.0000 0.7072 0.7070
vn -0.0000 0.0035 1.0000
vn -0.0000 -0.0043 1.0000
vn 0.0001 -0.3805 0.9248
vn -0.0000 -0.3972 0.9177
vn -0.0000 0.0709 0.9975
vn 0.0001 -0.3622 0.9321
vn -0.0000 0.0700 0.9976
vn -0.0000 0.4883 0.8727
vn 0.0004 -0.3627 0.9319
vn 0.0001 0.4571 0.8894
vn -0.0000 0.4880 0.8729
vn -0.0001 0.3930 0.9195
vn -0.0000 0.3473 0.9378
vn -0.0000 0.3462 0.9382
vn -0.0000 0.3474 0.9377
vn -0.0001 0.0706 0.9975
vn -0.0000 -0.3635 0.9316
vn -0.0003 -0.3628 0.9319
vn -0.0000 0.0700 0.9975
vn -0.0000 0.3860 0.9225
vn -0.0000 0.3859 0.9225
vn -0.0000 0.1477 0.9890
vn -0.0000 0.1498 0.9887
vn -0.0000 0.1495 0.9888
vn -0.0000 0.1470 0.9891
vn -0.0000 0.7065 0.7077
vn -0.0002 -0.7072 0.7070
vn -0.0000 -0.7065 0.7077
vn -0.0000 -0.7064 0.7078
vn -0.0000 -0.7076 0.7066
vn -0.0000 0.0007 1.0000
vn -0.0000 0.7076 0.7066
vn -0.0000 -0.4953 0.8687
vn -0.0000 -0.4955 0.8686
vn -0.0000 -0.2442 0.9697
vn -0.0000 -0.7072 0.7070
vn -0.0000 -0.2443 0.9697
vn -0.0000 -0.3860 0.9225
vn -0.0000 -0.3859 0.9225
vn -0.6621 -0.0000 0.7494
vn -0.6621 0.0001 0.7494
vn 0.6621 -0.0000 0.7494
vn -0.5810 -0.5753 -0.5758
vn -0.5810 0.5758 -0.5753
vn -0.5810 0.0001 -0.8139
vn -0.5810 0.8139 0.0002
vn -0.5810 -0.8139 -0.0002
vn -0.5810 -0.5757 0.5754
vn -0.5810 0.5754 0.5756
vn -0.5810 -0.0001 0.8139
vn -0.8225 -0.5687 -0.0000
vn -0.8225 -0.5688 -0.0000
vn -0.8222 -0.5692 -0.0000
vn -0.8015 0.5980 -0.0000
vn -0.8009 0.5988 -0.0000
vn -0.8014 0.5981 -0.0000
vn -0.8007 0.5991 -0.0000
vn -0.8013 0.5982 -0.0000
vn -0.8008 0.5989 -0.0000
vn -0.9858 0.1681 -0.0000
vn -0.9858 0.1678 -0.0000
vn -0.9857 0.1683 -0.0000
vn -0.8704 0.4924 -0.0000
vn -0.8867 0.4623 -0.0000
vn -0.6623 -0.0000 0.7492
vn -0.6623 -0.0000 -0.7492
vn -0.0000 -0.7074 -0.7068
vn -0.5813 -0.8137 -0.0002
vn -0.5813 -0.5751 -0.5756
vn -0.0000 -1.0000 -0.0000
vn -0.5812 -0.5753 0.5755
vn 0.7572 -0.6532 -0.0000
vn -0.0000 -0.7072 -0.7070
vn -0.0000 -0.7069 0.7073
vn -0.0000 -0.7074 0.7068
vn -0.0000 -1.0000 0.0001
vn -0.0000 -0.7073 0.7069
vn -0.0000 -0.7073 -0.7069
vn -0.0000 -0.7070 -0.7072
vn -0.0000 -0.7070 0.7072
vn -0.0000 -0.9225 -0.3859
vn -0.0000 -0.9229 -0.3850
vn -0.0000 -0.9227 -0.3856
vn -0.0000 -0.9223 -0.3864
vn -0.0000 -0.9222 0.3866
vn -0.0000 -0.9226 0.3858
vn -0.0000 -0.9224 0.3862
vn -0.0000 -0.9221 0.3870
vn -0.5814 -0.5751 -0.5755
vn -0.0000 -0.0005 -1.0000
vn -0.5813 0.0006 -0.8137
vn -0.0000 0.7064 -0.7078
vn -0.5813 0.5756 -0.5751
vn -0.0000 0.0122 -0.9999
vn -0.0000 -0.0094 -1.0000
vn -0.0000 -0.3664 -0.9305
vn -0.0000 0.7079 -0.7063
vn -0.0000 -0.4041 -0.9147
vn -0.0000 0.3854 -0.9228
vn -0.0000 0.3862 -0.9224
vn -0.0000 0.3873 -0.9220
vn -0.0000 0.3844 -0.9232
vn -0.0000 0.1504 -0.9886
vn -0.0000 0.1468 -0.9892
vn -0.0000 0.1511 -0.9885
vn -0.0000 0.1452 -0.9894
vn -0.0000 0.7065 -0.7077
vn 0.0001 0.7072 -0.7070
vn -0.0000 0.0005 -1.0000
vn 0.0002 -0.7072 -0.7070
vn -0.0000 -0.7065 -0.7077
vn -0.0000 -0.7071 -0.7071
vn -0.0000 -0.0007 -1.0000
vn -0.0000 -0.4961 -0.8683
vn -0.0000 -0.4935 -0.8697
vn -0.0000 -0.4945 -0.8692
vn -0.0000 -0.4972 -0.8676
vn -0.0000 -0.3862 -0.9224
vn -0.0000 -0.3854 -0.9227
vn -0.0000 -0.3843 -0.9232
vn -0.0000 -0.3873 -0.9220
vn -0.0000 -0.2442 -0.9697
vn -0.0000 -0.2443 -0.9697
vn -0.6620 -0.0000 -0.7495
vn -0.6621 -0.0000 -0.7494
vn 0.6621 -0.0000 -0.7494
vn -0.0000 0.4632 0.8862
vn -0.0000 0.4633 0.8862
vn -0.0000 0.4635 0.8861
vn -0.0000 0.4626 0.8866
vn 0.0001 0.4625 0.8866
vn -0.0000 0.4628 0.8864
vn 0.7901 0.6130 -0.0000
vn 0.7900 0.6131 -0.0000
vn 0.7898 0.6133 -0.0000
vn 0.7901 -0.6130 -0.0000
vn 0.7899 -0.6132 -0.0000
vn 0.7900 -0.6131 -0.0000
vn 0.7893 -0.6141 -0.0000
vn 0.7899 0.6133 -0.0000
vn 0.7898 -0.6133 -0.0000
vn 0.7899 -0.6133 -0.0000
vn -0.0000 0.5183 0.8552
vn -0.0000 0.5183 -0.8552
vn -0.0000 0.4631 0.8863
vn -0.0000 0.4628 0.8865
vn -0.0000 0.4632 0.8863
vn -0.0000 0.4629 0.8864
vn -0.0000 0.4627 0.8865
vn -0.7896 0.6136 -0.0000
vn -0.7900 0.6131 -0.0000
vn -0.7902 0.6128 -0.0000
vn -0.7900 0.6132 -0.0000
vn -0.7902 -0.6129 -0.0000
vn -0.7898 -0.6134 -0.0000
vn -0.7900 -0.6131 -0.0000
vn -0.7901 0.6130 -0.0000
vn -0.7897 0.6134 -0.0000
vn -0.7903 0.6128 -0.0000
vn -0.7899 -0.6133 -0.0000
vn -0.7898 -0.6133 -0.0000
vn -0.0000 0.4632 -0.8862
vn -0.0000 0.4633 -0.8862
vn -0.0000 0.4629 -0.8864
vn -0.0000 0.4627 -0.8865
vn -0.0000 0.4631 -0.8863
vn -0.0000 0.4632 -0.8863
vn -0.0000 0.4630 -0.8863
vn -0.7424 0.6699 -0.0000
vn -0.7420 0.6704 -0.0000
vn 0.0068 -1.0000 -0.0000
vt 0.000000 0.000000
vt 5.954110 -51.022701
vt 6.176890 -51.002300
vt 5.954110 -51.002300
vt 6.176890 -51.022701
vt 62.034698 -48.989700
vt 62.257500 -49.010101
vt 62.257500 -48.989700
vt 62.034698 -49.010101
vt 61.965302 -48.989700
vt 61.742500 -48.989700
vt 61.965302 -48.999901
vt 61.742500 -48.999901
vt 61.965302 -49.010101
vt 61.742500 -49.010101
vt 5.685210 -50.960499
vt 5.769630 -50.975201
vt 5.769630 -50.960499
vt 5.675470 -50.975201
vt 6.047990 -50.960499
vt 6.077210 -50.975201
vt 6.077210 -51.012501
vt 5.769630 -51.012501
vt 6.077210 -51.030800
vt 5.769630 -51.030800
vt 6.006410 -50.945000
vt 5.993420 -50.945000
vt 6.006410 -50.962200
vt 5.991920 -50.942299
vt 6.007920 -50.942299
vt 5.999920 -50.935299
vt 6.004270 -50.933498
vt 6.006070 -50.929100
vt 6.007920 -50.924801
vt 6.005990 -50.924099
vt 6.004580 -50.921398
vt 6.004270 -50.924801
vt 5.999920 -50.923000
vt 5.995250 -50.921398
vt 5.995560 -50.924801
vt 5.993840 -50.924099
vt 5.991920 -50.924801
vt 5.993760 -50.929100
vt 5.995560 -50.933498
vt 5.993420 -50.962200
vt 6.035280 -51.012501
vt 5.964720 -51.012501
vt 6.028230 -51.030800
vt 6.014490 -50.975201
vt 5.985510 -50.975201
vt 5.971770 -51.030800
vt 6.004790 -50.956100
vt 6.008000 -50.946400
vt 6.004790 -50.946400
vt 6.008000 -50.956100
vt 6.008000 -50.961700
vt 6.004790 -50.961700
vt 5.991840 -50.956100
vt 5.995050 -50.946400
vt 5.991840 -50.946400
vt 5.995050 -50.956100
vt 5.995050 -50.961700
vt 5.991840 -50.961700
vt 6.009030 -50.960499
vt 5.990970 -50.960499
vt 5.999920 -51.078602
vt 5.989940 -51.055599
vt 5.989940 -51.078602
vt 5.999920 -51.055599
vt 6.009890 -51.078602
vt 6.009890 -51.055599
vt 5.999330 -50.929001
vt 6.001530 -50.935902
vt 6.000500 -50.929001
vt 5.998300 -50.935902
vt 6.007710 -50.942501
vt 6.004210 -50.933498
vt 6.006410 -50.944901
vt 5.993420 -50.944901
vt 5.992120 -50.942501
vt 5.995620 -50.933498
vt 5.992120 -50.928600
vt 5.993850 -50.929199
vt 5.994100 -50.928600
vt 6.007710 -50.928600
vt 6.005990 -50.929199
vt 6.005730 -50.928600
vt 5.994910 -51.022701
vt 5.970420 -51.002300
vt 5.968660 -51.022701
vt 5.994910 -51.002300
vt 6.013010 -51.013599
vt 5.986820 -51.013599
vt 5.999920 -51.019001
vt 6.013010 -50.987400
vt 6.018440 -51.000500
vt 5.986820 -50.987400
vt 5.999920 -50.981998
vt 5.981400 -51.000500
vt 6.324530 -50.990601
vt 6.264670 -50.990601
vt 6.324530 -50.999901
vt 6.264670 -50.999901
vt 6.324530 -51.009300
vt 6.264670 -51.009300
vt 5.706850 -51.004601
vt 5.714080 -51.004601
vt 5.714080 -50.995300
vt 5.706850 -50.995300
vt 6.025930 -51.007702
vt 6.018390 -51.005699
vt 6.018390 -51.007702
vt 6.025930 -51.005699
vt 6.025930 -50.992100
vt 6.018390 -50.992100
vt 6.025930 -50.994099
vt 6.018390 -50.994099
vt 6.021490 -51.000500
vt 6.022670 -51.000500
vt 6.022670 -50.999298
vt 6.021490 -50.999298
vt 5.706850 -51.007900
vt 5.714080 -51.007900
vt 6.018390 -50.999901
vt 6.025930 -50.995602
vt 6.018390 -50.995602
vt 6.025930 -50.999901
vt 6.025930 -51.004200
vt 6.018390 -51.004200
vt 5.714080 -50.991901
vt 5.706850 -50.991901
vt 5.706850 -50.999901
vt 5.714080 -50.999901
vt 5.706850 -50.995602
vt 5.714080 -50.995602
vt 5.706850 -51.004299
vt 5.714080 -51.004299
vt 6.010290 -50.994999
vt 6.029740 -50.994999
vt 6.029740 -50.991798
vt 6.010290 -50.991798
vt 6.029740 -51.007999
vt 6.010290 -51.004799
vt 6.010290 -51.007999
vt 6.029740 -51.004799
vt 5.734380 -51.004799
vt 5.721400 -51.004799
vt 5.734380 -51.007999
vt 5.721400 -51.007999
vt 5.701950 -51.007999
vt 5.701950 -51.004799
vt 5.734380 -50.991798
vt 5.721400 -50.991798
vt 5.734380 -50.994999
vt 5.721400 -50.994999
vt 5.701950 -50.994999
vt 5.701950 -50.991798
vt 6.258970 -51.009998
vt 6.071180 -50.999901
vt 6.071180 -51.009998
vt 6.258970 -50.999901
vt 6.071180 -50.989799
vt 6.258970 -50.989799
vt 6.256470 -50.999901
vt 6.324530 -50.986801
vt 6.256470 -50.986801
vt 6.256470 -51.013000
vt 6.324530 -51.013000
vt 5.997300 -50.991798
vt 5.997300 -50.994999
vt 5.997300 -51.004799
vt 5.997300 -51.007999
vt 6.047990 -51.008999
vt 6.077210 -51.014500
vt 6.077210 -50.985500
vt 6.047990 -50.991001
vt 5.769630 -50.991001
vt 5.769630 -51.008999
vt 5.685210 -50.991001
vt 5.685210 -51.008999
vt 6.045890 -50.994900
vt 5.823110 -50.968700
vt 5.823110 -50.994900
vt 6.045890 -50.968700
vt 6.082170 -51.031399
vt 5.999500 -50.968601
vt 5.999500 -51.031399
vt 6.082170 -50.968601
vt 5.735330 -51.009800
vt 5.675470 -51.000500
vt 5.675470 -51.009800
vt 5.735330 -51.000500
vt 5.675470 -50.991100
vt 5.735330 -50.991100
vt 5.981610 -50.933498
vt 5.974070 -50.929199
vt 5.974070 -50.933498
vt 5.981610 -50.929199
vt 5.974070 -50.928600
vt 5.981610 -50.928600
vt 6.000500 -51.030800
vt 5.934060 -51.057201
vt 6.000500 -51.057201
vt 5.917830 -51.030800
vt 5.922790 -51.012501
vt 5.954110 -51.012501
vt 5.922790 -51.030800
vt 5.922790 -50.975201
vt 6.230370 -50.975201
vt 5.952010 -50.960499
vt 6.230370 -50.960499
vt 6.314790 -50.960499
vt 6.324530 -50.975201
vt 6.230370 -51.012501
vt 6.230370 -51.030800
vt 6.176890 -51.012501
vt 6.285920 -50.933498
vt 6.293150 -50.933498
vt 6.293150 -50.929100
vt 6.285920 -50.929100
vt 5.989710 -50.946400
vt 5.963770 -50.961700
vt 6.002700 -50.961700
vt 6.002700 -50.956100
vt 5.970260 -50.946400
vt 5.963770 -50.956100
vt 6.304540 -50.961700
vt 6.298050 -50.946400
vt 6.278600 -50.946400
vt 6.265620 -50.961700
vt 6.304540 -50.956100
vt 6.265620 -50.956100
vt 6.293150 -50.942299
vt 6.293150 -50.924801
vt 6.285920 -50.942299
vt 6.285920 -50.924801
vt 6.285920 -50.945000
vt 6.285920 -50.962200
vt 6.293150 -50.962200
vt 6.293150 -50.945000
vt 5.977330 -50.929001
vt 5.976300 -50.935902
vt 5.979540 -50.935902
vt 5.978510 -50.929001
vt 5.928820 -50.990398
vt 5.741030 -50.990398
vt 5.928820 -51.000500
vt 5.741030 -51.000500
vt 5.928820 -51.010601
vt 5.741030 -51.010601
vt 5.675470 -51.013599
vt 5.743530 -51.013599
vt 5.743530 -51.000500
vt 5.743530 -50.987400
vt 5.675470 -50.987400
vt 5.974070 -50.944901
vt 5.974070 -50.962200
vt 5.981610 -50.962200
vt 5.981610 -50.944901
vt 5.981610 -50.942501
vt 5.974070 -50.942501
vt 5.961460 -51.055599
vt 5.961460 -51.078602
vt 5.971430 -51.078602
vt 5.971430 -51.055599
vt 5.981410 -51.078602
vt 5.981410 -51.055599
vt 6.000080 -50.981998
vt 6.009440 -50.991100
vt 6.013180 -50.987400
vt 6.000080 -50.987202
vt 5.990730 -50.991100
vt 5.986990 -50.987400
vt 5.986850 -51.000500
vt 5.981560 -51.000500
vt 5.986990 -51.013599
vt 5.990730 -51.009800
vt 6.000080 -51.019001
vt 6.013180 -51.013599
vt 6.009440 -51.009800
vt 6.000080 -51.013699
vt 6.013320 -51.000500
vt 6.018600 -51.000500
vt 5.968640 -51.057201
vt 6.031360 -51.030800
vt 5.968640 -51.030800
vt 6.031360 -51.057201
vt 6.004950 -50.956100
vt 6.004950 -50.961700
vt 6.008160 -50.961700
vt 6.008160 -50.956100
vt 5.992000 -50.956100
vt 5.992000 -50.961700
vt 5.995210 -50.961700
vt 5.995210 -50.956100
vt 6.008160 -50.946400
vt 6.004950 -50.946400
vt 5.995210 -50.946400
vt 5.992000 -50.946400
vt 5.999500 -50.929001
vt 5.998470 -50.935902
vt 6.001700 -50.935902
vt 6.000670 -50.929001
vt 5.993590 -50.944901
vt 6.000080 -50.935299
vt 5.992290 -50.942501
vt 6.006580 -50.944901
vt 5.993590 -50.962200
vt 6.006580 -50.962200
vt 6.007880 -50.942501
vt 6.004380 -50.933498
vt 6.007880 -50.928600
vt 6.006150 -50.929199
vt 6.005900 -50.928600
vt 5.995790 -50.933498
vt 5.992290 -50.928600
vt 5.994010 -50.929199
vt 5.994270 -50.928600
vt 6.000080 -51.055599
vt 6.010060 -51.078602
vt 6.010060 -51.055599
vt 6.000080 -51.078602
vt 5.990110 -51.055599
vt 5.990110 -51.078602
vt 6.005090 -51.022701
vt 6.029580 -51.002300
vt 6.005090 -51.002300
vt 6.031340 -51.022701
vt 5.993590 -50.945000
vt 6.006580 -50.945000
vt 5.992080 -50.942299
vt 6.008080 -50.942299
vt 5.995730 -50.933498
vt 5.993930 -50.929100
vt 5.992080 -50.924801
vt 5.994010 -50.924099
vt 5.995420 -50.921398
vt 6.004750 -50.921398
vt 6.000080 -50.923000
vt 5.995730 -50.924801
vt 6.004440 -50.924801
vt 6.006240 -50.929100
vt 6.006160 -50.924099
vt 6.008080 -50.924801
vt 6.004440 -50.933498
vt 5.675470 -50.990601
vt 5.735330 -50.999901
vt 5.735330 -50.990601
vt 5.675470 -50.999901
vt 5.735330 -51.009300
vt 5.675470 -51.009300
vt 6.324530 -51.014500
vt 6.230370 -50.985500
vt 6.230370 -51.014500
vt 6.324530 -50.985500
vt 5.934060 -51.031399
vt 6.000500 -51.031399
vt 5.934060 -50.968601
vt 6.000500 -50.968601
vt 6.230370 -50.971802
vt 5.922790 -50.971802
vt 6.230370 -51.028198
vt 5.922790 -51.028198
vt 5.954110 -50.994900
vt 6.176890 -50.994900
vt 6.176890 -50.970402
vt 5.954110 -50.970402
vt 5.741030 -51.009998
vt 5.928820 -51.009998
vt 5.741030 -50.999901
vt 5.928820 -50.999901
vt 5.741030 -50.989799
vt 5.928820 -50.989799
vt 5.743530 -50.986801
vt 5.675470 -50.986801
vt 5.743530 -50.999901
vt 5.675470 -51.013000
vt 5.743530 -51.013000
vt 6.293150 -51.006401
vt 6.293150 -50.993401
vt 6.285920 -51.006401
vt 6.285920 -50.993401
vt 5.974070 -51.006401
vt 5.981610 -50.993401
vt 5.974070 -50.993401
vt 5.981610 -51.006401
vt 6.285920 -50.999901
vt 6.293150 -50.999901
vt 6.293150 -50.995602
vt 6.285920 -50.995602
vt 6.285920 -51.004299
vt 6.293150 -51.004299
vt 6.264670 -50.991100
vt 6.324530 -51.000500
vt 6.324530 -50.991100
vt 6.264670 -51.000500
vt 6.324530 -51.009800
vt 6.264670 -51.009800
vt 6.018390 -50.929199
vt 6.025930 -50.933498
vt 6.025930 -50.929199
vt 6.018390 -50.928600
vt 6.018390 -50.933498
vt 6.025930 -50.928600
vt 5.999500 -51.057201
vt 6.065940 -51.057201
vt 5.999500 -51.030800
vt 6.082170 -51.030800
vt 5.706850 -50.929100
vt 5.714080 -50.933498
vt 5.714080 -50.929100
vt 5.706850 -50.933498
vt 5.997300 -50.961700
vt 6.010290 -50.946400
vt 5.997300 -50.956100
vt 6.036230 -50.961700
vt 6.029740 -50.946400
vt 6.036230 -50.956100
vt 5.701950 -50.946400
vt 5.695460 -50.961700
vt 5.721400 -50.946400
vt 5.695460 -50.956100
vt 5.734380 -50.961700
vt 5.734380 -50.956100
vt 5.706850 -50.924801
vt 5.706850 -50.942299
vt 5.714080 -50.924801
vt 5.714080 -50.942299
vt 5.706850 -50.945000
vt 5.714080 -50.962200
vt 5.714080 -50.945000
vt 5.706850 -50.962200
vt 6.023700 -50.935902
vt 6.021490 -50.929001
vt 6.020460 -50.935902
vt 6.022670 -50.929001
vt 6.258970 -50.990398
vt 6.071180 -50.990398
vt 6.258970 -51.000500
vt 6.071180 -51.000500
vt 6.258970 -51.010601
vt 6.071180 -51.010601
vt 6.256470 -51.013599
vt 6.324530 -51.013599
vt 6.256470 -51.000500
vt 6.324530 -50.987400
vt 6.256470 -50.987400
vt 6.025930 -50.962200
vt 6.018390 -50.944901
vt 6.018390 -50.962200
vt 6.025930 -50.944901
vt 6.025930 -50.942501
vt 6.018390 -50.942501
vt 6.028570 -51.055599
vt 6.038540 -51.078602
vt 6.038540 -51.055599
vt 6.028570 -51.078602
vt 6.018590 -51.055599
vt 6.018590 -51.078602
vt 61.779598 -48.971500
vt 61.779598 -48.957199
vt 61.774700 -48.964401
vt 61.828701 -48.957199
vt 61.828701 -48.971500
vt 61.833599 -48.964401
vt 61.996899 -48.989700
vt 61.976002 -48.989700
vt 61.996899 -49.010101
vt 61.974300 -49.010101
vt 61.970901 -48.999901
vt 61.985802 -48.957199
vt 62.017899 -48.964401
vt 62.014198 -48.957199
vt 61.982101 -48.964401
vt 61.978401 -48.971500
vt 62.021599 -48.971500
vt 62.105900 -49.014198
vt 62.154999 -49.014198
vt 62.154999 -48.985802
vt 62.105900 -48.985802
vt 62.171299 -49.014198
vt 62.220402 -49.014198
vt 62.220402 -48.985802
vt 62.171299 -48.985802
vt 62.034698 -48.996899
vt 62.257500 -48.996899
vt 62.257500 -48.976002
vt 62.034698 -48.976002
vt 62.257500 -48.970402
vt 62.132099 -48.970402
vt 62.257500 -48.990799
vt 62.132099 -48.990799
vt 62.023602 -48.970402
vt 61.964001 -48.990799
vt 62.035999 -48.990799
vt 61.976398 -48.970402
vt 62.033298 -49.022400
vt 61.966702 -49.022400
vt 62.033298 -49.042801
vt 61.966702 -49.042801
vt 61.742500 -49.023602
vt 61.867901 -49.023602
vt 61.867901 -48.976398
vt 61.742500 -48.976398
vt 61.839699 -49.033298
vt 61.896900 -49.033298
vt 61.896900 -48.966702
vt 61.839699 -48.966702
vt 62.160301 -49.022400
vt 62.103100 -49.022400
vt 62.160301 -49.042801
vt 62.103100 -49.042801
vt 62.103100 -49.033298
vt 62.160301 -49.033298
vt 62.160301 -48.966702
vt 62.103100 -48.966702
vt 62.132099 -49.035999
vt 62.257500 -49.035999
vt 62.257500 -48.964001
vt 62.132099 -48.964001
vt 61.839699 -49.022400
vt 61.896900 -49.042801
vt 61.896900 -49.022400
vt 61.839699 -49.042801
vt 61.742500 -48.970402
vt 61.867901 -48.990799
vt 61.867901 -48.970402
vt 61.742500 -48.990799
vt 61.845001 -48.971500
vt 61.894100 -48.957199
vt 61.845001 -48.957199
vt 61.840099 -48.964401
vt 61.894100 -48.971500
vt 61.898998 -48.964401
vt 62.003101 -49.010101
vt 62.023998 -48.989700
vt 62.003101 -48.989700
vt 62.025700 -49.010101
vt 62.029099 -48.999901
vt 61.742500 -48.996899
vt 61.965302 -48.996899
vt 61.965302 -48.974300
vt 61.742500 -48.974300
vt 61.845001 -49.021599
vt 61.894100 -49.021599
vt 61.894100 -48.978401
vt 61.845001 -48.978401
vt 61.779598 -49.021599
vt 61.828701 -49.021599
vt 61.828701 -48.978401
vt 61.779598 -48.978401
vt 62.154999 -48.957199
vt 62.154999 -48.971500
vt 62.159901 -48.964401
vt 62.105900 -48.971500
vt 62.105900 -48.957199
vt 62.101002 -48.964401
vt 62.220402 -48.957199
vt 62.220402 -48.971500
vt 62.225300 -48.964401
vt 62.171299 -48.971500
vt 62.171299 -48.957199
vt 62.166401 -48.964401
vt 36.291901 -2.968640
vt 36.101002 -2.968640
vt 36.291901 -3.031360
vt 36.101002 -3.031360
vt 35.968601 -2.930020
vt 36.031399 -2.930020
vt 35.984299 -2.872770
vt 36.015701 -2.872770
vt 36.039200 -2.911740
vt 35.960800 -2.911740
vt 35.708099 -2.968640
vt 35.708099 -3.031360
vt 35.731400 -3.031360
vt 35.731400 -2.968640
s 1
usemtl Material.011
f 189/147/94 191/147/94 190/147/94
f 190/147/94 192/147/94 189/147/94
f 193/147/95 195/147/95 194/147/95
f 194/147/95 196/147/95 193/147/95
f 197/147/95 196/147/95 194/147/95
f 194/147/95 198/147/95 197/147/95
f 195/147/95 193/147/95 199/147/95
f 200/147/95 195/147/95 199/147/95
f 199/147/95 201/147/95 200/147/95
f 201/147/95 202/147/95 200/147/95
f 203/147/96 205/147/96 204/147/96
f 204/147/96 205/147/96 206/147/96
f 206/147/96 207/147/96 204/147/96
f 207/147/96 208/147/96 204/147/96
f 209/147/96 205/147/96 203/147/96
f 209/147/96 203/147/96 210/147/96
f 210/147/96 211/147/96 209/147/96
f 211/147/96 212/147/96 209/147/96
f 213/147/97 215/147/97 214/147/98
f 214/147/98 216/147/99 213/147/97
f 216/147/99 214/147/98 217/147/100
f 217/147/100 218/147/101 216/147/99
f 217/147/100 219/147/101 218/147/101
f 219/147/101 217/147/100 220/147/100
f 221/147/98 219/147/101 220/147/100
f 220/147/100 222/147/99 221/147/98
f 223/147/99 221/147/98 222/147/99
f 222/147/99 224/147/98 223/147/99
f 223/147/99 224/147/98 225/147/101
f 225/147/101 226/147/100 223/147/99
f 226/147/100 225/147/101 227/147/102
f 227/147/102 225/147/101 228/147/103
f 229/147/104 227/147/102 228/147/103
f 229/147/104 228/147/103 230/147/104
f 231/147/105 229/147/104 230/147/104
f 229/147/104 231/147/105 232/147/105
usemtl Meshpart1Mtl.029
f 237/148/106 238/149/106 240/150/106
f 237/148/106 239/151/106 238/149/106
usemtl Meshpart2Mtl.021
f 233/152/107 235/153/107 234/154/107
f 235/153/107 233/152/107 236/155/107
f 241/156/108 243/157/108 242/158/109
f 244/159/109 242/158/109 243/157/108
f 242/158/109 244/159/109 245/160/110
f 246/161/110 245/160/110 244/159/109
usemtl Meshpart1Mtl.030
f 247/162/111 249/163/112 248/164/113
f 249/163/112 247/162/111 250/165/111
f 249/163/112 251/166/114 248/164/113
f 251/166/114 249/163/112 252/167/115
f 252/167/115 249/163/112 253/168/116
f 254/169/117 253/168/116 249/163/112
f 253/168/116 254/169/117 255/170/118
f 256/171/118 255/170/118 254/169/117
f 263/172/97 265/173/97 264/174/97
f 263/172/97 266/175/97 265/173/97
f 266/175/97 263/172/97 267/176/97
f 267/176/97 268/177/97 266/175/97
f 268/177/97 267/176/97 269/178/97
f 267/176/97 270/179/97 269/178/97
f 267/176/97 271/180/97 270/179/97
f 272/181/97 270/179/97 271/180/97
f 271/180/97 273/182/97 272/181/97
f 276/183/97 273/182/97 274/184/97
f 273/182/97 275/185/97 274/184/97
f 273/182/97 276/183/97 272/181/97
f 270/179/97 272/181/97 276/183/97
f 279/186/97 275/185/97 277/187/97
f 275/185/97 278/188/97 277/187/97
f 275/185/97 279/186/97 274/184/97
f 277/187/97 280/189/97 279/186/97
f 280/189/97 266/175/97 281/190/97
f 266/175/97 280/189/97 278/188/97
f 280/189/97 277/187/97 278/188/97
f 266/175/97 268/177/97 281/190/97
f 264/174/97 265/173/97 282/191/97
f 283/192/97 285/193/97 284/194/97
f 286/195/119 285/193/97 283/192/97
f 285/193/97 286/195/119 287/196/119
f 284/194/97 285/193/97 288/197/97
f 290/198/120 289/199/121 291/200/122
f 289/199/121 290/198/120 292/201/123
f 290/198/120 293/202/97 292/201/123
f 293/202/97 290/198/120 294/203/97
f 296/204/120 295/205/121 297/206/122
f 295/205/121 296/204/120 298/207/123
f 296/204/120 299/208/97 298/207/123
f 299/208/97 296/204/120 300/209/97
f 302/196/124 303/210/125 301/211/125
f 303/210/125 302/196/124 304/195/126
f 305/204/97 307/208/97 306/207/97
f 307/208/97 305/204/97 308/209/97
f 309/198/97 311/202/97 310/201/97
f 311/202/97 309/198/97 312/203/97
f 314/212/97 315/213/127 313/214/127
f 315/213/127 314/212/97 316/215/97
f 317/216/128 316/215/97 314/212/97
f 316/215/97 317/216/128 318/217/128
f 319/218/129 321/219/130 320/220/131
f 321/219/130 319/218/129 322/221/130
f 323/177/97 325/222/97 324/223/97
f 325/222/97 323/177/97 326/224/97
f 326/224/97 323/177/97 327/225/97
f 327/225/97 323/177/97 328/226/97
f 328/226/97 323/177/97 329/227/97
f 329/227/97 330/228/97 328/226/97
f 330/228/97 329/227/97 331/229/97
f 332/230/97 330/228/97 331/229/97
f 326/224/97 327/225/97 333/174/97
f 333/174/97 327/225/97 334/191/97
f 335/231/97 324/223/97 325/222/97
f 324/223/97 335/231/97 336/232/97
f 335/231/97 337/233/97 336/232/97
f 338/234/97 340/235/97 339/236/97
f 340/235/97 338/234/97 341/237/97
f 339/236/97 340/235/97 342/193/97
f 343/238/97 345/239/97 344/240/97
f 345/239/97 343/238/97 346/241/97
f 346/241/97 343/238/97 347/242/97
f 346/241/97 348/243/97 345/239/97
f 348/243/97 346/241/97 349/244/97
f 345/239/97 348/243/97 350/245/97
f 351/246/132 353/247/133 352/248/134
f 354/249/135 352/248/134 353/247/133
f 352/248/134 354/249/135 355/250/136
f 356/251/137 355/250/136 354/249/135
f 357/252/134 359/253/134 358/254/134
f 357/252/134 358/254/134 360/255/134
f 361/256/134 363/257/134 362/258/134
f 363/257/134 361/256/134 364/259/134
f 365/260/134 367/261/134 366/262/134
f 368/263/134 366/262/134 367/261/134
f 369/264/134 371/265/134 370/266/134
f 369/264/134 370/266/134 372/267/134
f 373/268/138 375/269/138 374/253/138
f 373/268/138 374/253/138 376/252/138
f 378/270/139 377/271/140 379/272/141
f 377/271/140 378/270/139 380/273/134
f 380/273/134 378/270/139 381/274/136
f 382/275/136 381/274/136 378/270/139
f 383/255/142 385/254/143 384/276/144
f 383/255/142 384/276/144 386/277/145
f 387/278/146 389/279/147 388/280/148
f 389/279/147 390/281/149 388/280/148
f 391/282/150 393/283/151 392/278/152
f 393/283/151 394/279/153 392/278/152
f 395/284/134 397/285/134 396/286/134
f 395/284/134 396/286/134 398/287/134
f 399/288/134 401/289/134 400/290/134
f 401/289/134 399/288/134 402/291/134
f 404/292/154 405/293/155 403/294/154
f 406/295/156 403/294/154 405/293/155
f 405/293/155 407/296/157 406/295/156
f 407/296/157 405/293/155 408/297/157
f 410/298/154 411/299/155 409/300/154
f 412/301/156 409/300/154 411/299/155
f 411/299/155 413/302/157 412/301/156
f 413/302/157 411/299/155 414/303/157
f 415/304/158 417/305/134 416/306/159
f 417/305/134 415/304/158 418/307/134
f 418/307/134 419/308/160 417/305/134
f 419/308/160 418/307/134 420/309/136
f 422/310/161 423/311/162 421/312/144
f 423/311/162 422/310/161 424/248/161
f 425/313/163 424/248/161 422/310/161
f 424/248/161 425/313/163 426/314/163
f 427/284/164 429/315/164 428/316/164
f 429/315/164 427/284/164 430/287/164
f 431/290/164 433/317/164 432/318/164
f 433/317/164 431/290/164 434/289/164
f 435/319/165 437/320/166 436/321/167
f 435/319/165 436/321/167 438/322/168
f 439/323/134 435/319/165 438/322/168
f 435/319/165 439/323/134 440/324/134
f 439/323/134 441/325/125 440/324/134
f 442/326/125 440/324/134 441/325/125
f 443/327/134 445/328/134 444/329/134
f 445/328/134 443/327/134 446/330/134
f 447/331/134 449/332/134 448/333/134
f 449/332/134 447/331/134 450/334/134
f 452/335/169 453/336/170 451/337/171
f 453/336/170 452/335/169 454/338/172
f 454/338/172 455/339/173 453/336/170
f 455/339/173 454/338/172 456/340/174
f 458/341/175 459/342/176 457/343/145
f 459/342/176 458/341/175 460/344/177
f 460/344/177 461/345/178 459/342/176
f 461/345/178 460/344/177 462/346/179
f 463/347/106 465/348/106 464/349/106
f 465/348/106 463/347/106 466/350/106
f 467/351/180 469/148/181 468/352/182
f 470/150/183 467/351/180 468/352/182
f 469/148/181 467/351/180 471/353/184
f 467/351/180 470/150/183 472/354/185
f 473/149/186 472/354/185 470/150/183
f 472/354/185 473/149/186 474/355/187
f 472/354/185 474/355/187 475/356/188
f 476/357/189 475/356/188 474/355/187
f 474/355/187 477/358/188 476/357/189
f 477/358/188 474/355/187 478/359/190
f 479/360/191 474/355/187 473/149/186
f 479/360/191 481/151/192 480/361/193
f 481/151/192 479/360/191 482/362/194
f 479/360/191 473/149/186 482/362/194
f 471/353/184 481/151/192 469/148/181
f 481/151/192 471/353/184 480/361/193
f 483/363/195 485/364/195 484/365/195
f 483/363/195 484/365/195 486/366/196
f 487/367/106 489/368/106 488/369/106
f 487/367/106 488/369/106 490/370/106
f 491/371/106 489/368/106 487/367/106
f 489/368/106 491/371/106 492/372/106
f 493/373/106 495/374/170 494/375/106
f 494/375/106 497/376/106 493/373/106
f 495/374/170 493/373/106 496/377/106
f 497/376/106 494/375/106 498/378/106
f 499/379/106 501/380/106 500/381/106
f 500/381/106 501/380/106 502/382/106
f 503/383/106 505/384/106 504/385/106
f 504/385/106 506/386/106 503/383/106
f 507/387/197 509/388/198 508/389/199
f 508/389/199 510/390/200 507/387/197
f 511/391/201 513/392/175 512/393/106
f 514/394/106 512/393/106 513/392/175
f 512/393/106 514/394/106 515/395/202
f 516/396/203 515/395/202 514/394/106
f 517/397/204 519/398/205 518/399/170
f 517/397/204 518/399/170 520/336/206
f 520/336/206 518/399/170 521/400/171
f 520/336/206 521/400/171 522/401/207
f 523/367/106 525/368/106 524/369/106
f 523/367/106 524/369/106 526/370/106
f 527/371/170 525/368/106 523/367/106
f 525/368/106 527/371/170 528/372/106
f 529/373/106 531/374/106 530/375/106
f 530/375/106 533/376/106 529/373/106
f 531/374/106 529/373/106 532/377/106
f 533/376/106 530/375/106 534/378/106
f 535/383/208 537/386/209 536/379/208
f 535/383/208 536/379/208 538/381/208
f 539/402/210 541/403/211 540/404/211
f 540/404/211 542/405/212 539/402/210
f 539/402/210 542/405/212 543/406/212
f 539/402/210 543/406/212 544/407/212
f 543/406/212 545/346/106 544/407/212
f 544/407/212 545/346/106 546/345/106
f 547/365/213 549/382/213 548/366/214
f 549/382/213 547/365/213 550/380/213
f 551/408/215 553/409/216 552/410/106
f 552/410/106 554/411/106 551/408/215
f 554/411/106 552/410/106 555/412/217
f 555/412/217 556/413/217 554/411/106
f 557/414/105 559/415/105 558/416/105
f 559/415/105 557/414/105 560/417/105
f 557/414/105 561/418/105 560/417/105
f 557/414/105 562/419/105 561/418/105
f 563/420/105 561/418/105 562/419/105
f 562/419/105 564/421/105 563/420/105
f 565/422/105 563/420/105 564/421/105
f 563/420/105 565/422/105 566/423/105
f 567/424/105 566/423/105 565/422/105
f 567/424/105 569/425/105 568/426/105
f 567/424/105 568/426/105 570/427/105
f 566/423/105 567/424/105 570/427/105
f 571/428/105 569/425/105 572/429/105
f 569/425/105 571/428/105 568/426/105
f 558/416/105 571/428/105 572/429/105
f 571/428/105 558/416/105 559/415/105
f 573/415/218 575/426/219 574/428/220
f 573/415/218 576/427/221 575/426/219
f 576/427/221 573/415/218 577/417/222
f 578/418/223 576/427/221 577/417/222
f 576/427/221 578/418/223 579/423/224
f 579/423/224 578/418/223 580/420/225
f 581/430/226 583/431/227 582/432/227
f 583/431/227 581/430/226 584/433/228
f 585/434/105 587/435/105 586/436/105
f 585/434/105 586/436/105 588/437/105
f 589/438/105 591/439/105 590/440/105
f 589/438/105 590/440/105 592/441/105
f 593/437/229 595/442/230 594/434/231
f 596/443/232 594/434/231 595/442/230
f 597/441/232 599/444/233 598/438/234
f 600/445/229 598/438/234 599/444/233
f 601/446/235 603/447/236 602/448/236
f 601/446/235 602/448/236 604/449/237
f 605/450/105 607/451/105 606/452/105
f 607/451/105 605/450/105 608/453/105
f 609/454/105 608/453/105 605/450/105
f 608/453/105 609/454/105 610/455/105
f 611/456/105 607/451/105 608/453/105
f 607/451/105 611/456/105 612/457/105
f 612/457/105 611/456/105 613/458/105
f 612/457/105 613/458/105 614/459/105
f 613/458/105 615/460/105 614/459/105
f 606/452/105 607/451/105 616/461/105
f 617/462/105 606/452/105 616/461/105
f 617/462/105 616/461/105 618/463/105
f 617/462/105 618/463/105 619/464/105
f 620/438/238 622/439/105 621/440/105
f 620/438/238 621/440/105 623/441/238
f 624/434/238 626/435/105 625/436/105
f 624/434/238 625/436/105 627/437/238
f 628/196/239 630/192/105 629/195/239
f 628/196/239 631/193/105 630/192/105
f 632/197/105 630/192/105 631/193/105
f 630/192/105 632/197/105 633/194/105
f 635/465/105 636/466/240 634/467/240
f 635/465/105 637/468/105 636/466/240
f 638/469/241 637/468/105 635/465/105
f 638/469/241 639/470/241 637/468/105
f 640/471/105 642/472/105 641/473/105
f 642/472/105 640/471/105 643/474/105
f 644/192/105 642/472/105 643/474/105
f 645/475/105 647/454/105 646/455/105
f 645/475/105 646/455/105 648/476/105
f 648/476/105 649/477/105 645/475/105
f 649/477/105 648/476/105 650/478/105
f 649/477/105 650/478/105 651/451/105
f 649/477/105 651/451/105 652/479/105
f 653/480/105 649/477/105 652/479/105
f 649/477/105 653/480/105 654/481/105
f 653/480/105 655/482/105 654/481/105
f 656/483/105 654/481/105 655/482/105
f 657/484/105 656/483/105 658/485/105
f 656/483/105 659/486/105 658/485/105
f 659/486/105 656/483/105 655/482/105
f 655/482/105 653/480/105 659/486/105
f 658/485/105 660/487/105 657/484/105
f 661/488/105 662/489/105 660/487/105
f 657/484/105 660/487/105 662/489/105
f 662/489/105 661/488/105 663/490/105
f 663/490/105 657/484/105 662/489/105
f 650/478/105 663/490/105 661/488/105
f 650/478/105 661/488/105 664/491/105
f 651/451/105 650/478/105 664/491/105
f 666/492/242 667/493/243 665/494/244
f 667/493/243 666/492/242 668/495/245
f 668/495/245 669/496/246 667/493/243
f 669/496/246 668/495/245 670/497/173
f 672/498/245 673/499/247 671/500/247
f 673/499/247 672/498/245 674/501/245
f 675/502/245 677/503/245 676/504/245
f 677/503/245 678/505/245 676/504/245
f 679/506/245 681/507/245 680/508/245
f 682/509/245 680/508/245 681/507/245
f 683/510/245 685/511/245 684/512/245
f 683/510/245 684/512/245 686/513/245
f 687/514/242 689/515/248 688/516/245
f 690/517/245 688/516/245 689/515/248
f 688/516/245 690/517/245 691/518/249
f 692/519/250 691/518/249 690/517/245
f 694/495/251 695/520/252 693/521/173
f 694/495/251 696/522/251 695/520/252
f 697/523/253 696/522/251 694/495/251
f 697/523/253 698/524/253 696/522/251
f 699/525/245 701/526/245 700/527/245
f 700/527/245 701/526/245 702/528/245
f 704/529/254 705/530/255 703/531/255
f 704/529/254 706/532/254 705/530/255
f 707/533/256 709/534/257 708/535/258
f 707/533/256 708/535/258 710/536/259
f 711/537/260 713/538/261 712/534/262
f 711/537/260 712/534/262 714/533/263
f 715/539/264 717/540/265 716/541/248
f 717/540/265 715/539/264 718/542/266
f 718/542/266 719/543/267 717/540/265
f 719/543/267 718/542/266 720/544/268
f 721/545/269 723/546/141 722/547/270
f 722/547/270 724/548/271 721/545/269
f 723/546/141 721/545/269 725/549/272
f 724/548/271 722/547/270 726/550/273
f 727/551/107 729/552/107 728/553/107
f 730/554/107 728/553/107 729/552/107
f 731/555/274 733/556/275 732/557/276
f 733/556/275 731/555/274 734/558/277
f 735/559/107 737/560/107 736/561/107
f 737/560/107 735/559/107 738/562/107
f 737/560/107 738/562/107 739/563/107
f 739/563/107 738/562/107 740/564/107
f 741/565/107 743/566/107 742/567/107
f 743/566/107 741/565/107 744/568/107
f 742/567/107 743/566/107 745/569/107
f 742/567/107 745/569/107 746/570/107
f 747/571/107 749/572/107 748/573/107
f 748/573/107 749/572/107 750/574/107
f 751/575/107 753/576/107 752/577/107
f 753/576/107 751/575/107 754/578/107
f 755/579/278 757/580/279 756/581/280
f 757/580/279 755/579/278 758/582/281
f 759/583/282 761/584/283 760/585/107
f 762/586/284 760/585/107 761/584/283
f 760/585/107 762/586/284 763/587/285
f 764/588/286 763/587/285 762/586/284
f 766/540/107 767/589/287 765/590/286
f 766/540/107 768/591/107 767/589/287
f 769/592/132 768/591/107 766/540/107
f 769/592/132 770/593/282 768/591/107
f 771/559/107 773/560/107 772/561/107
f 773/560/107 771/559/107 774/562/107
f 773/560/107 774/562/107 775/563/107
f 775/563/107 774/562/107 776/564/107
f 777/565/288 779/566/107 778/567/107
f 779/566/107 777/565/288 780/568/107
f 778/567/107 779/566/107 781/569/107
f 778/567/107 781/569/107 782/570/107
f 783/574/289 785/572/290 784/575/291
f 783/574/289 784/575/291 786/577/292
f 787/571/293 789/557/294 788/573/295
f 789/557/294 787/571/293 790/555/296
f 791/594/248 793/595/297 792/596/248
f 793/595/297 791/594/248 794/597/298
f 795/598/298 793/595/297 794/597/298
f 795/598/298 796/599/298 793/595/297
f 797/550/107 796/599/298 795/598/298
f 798/548/107 796/599/298 797/550/107
f 800/600/107 801/601/299 799/602/300
f 801/601/299 800/600/107 802/603/107
f 803/604/301 802/603/107 800/600/107
f 802/603/107 803/604/301 804/605/301
usemtl Meshpart2Mtl.022
f 257/606/302 258/607/303 260/608/304
f 257/606/302 259/609/305 258/607/303
f 261/610/306 259/609/305 257/606/302
f 259/609/305 261/610/306 262/611/307
f 805/612/97 807/613/97 806/614/97
f 807/613/97 808/615/97 806/614/97
f 808/615/97 807/613/97 809/616/97
f 810/617/308 812/618/309 811/619/310
f 813/620/310 812/618/309 810/617/308
f 814/618/311 816/621/312 815/622/313
f 816/621/312 814/618/311 817/620/314
f 818/617/308 820/618/309 819/619/308
f 821/620/315 820/618/309 818/617/308
f 822/618/313 824/621/316 823/622/317
f 824/621/316 822/618/313 825/620/311
f 826/623/134 828/624/134 827/625/134
f 826/623/134 827/625/134 829/626/134
f 830/627/134 832/628/134 831/629/134
f 830/627/134 831/629/134 833/630/134
f 834/631/134 836/632/134 835/633/134
f 834/631/134 835/633/134 837/634/134
f 838/635/318 840/636/318 839/637/318
f 841/638/318 839/637/318 840/636/318
f 842/639/97 844/640/97 843/641/97
f 844/640/97 842/639/97 845/642/97
f 846/643/97 848/644/97 847/645/97
f 847/645/97 848/644/97 849/646/97
f 850/647/134 852/648/134 851/649/134
f 850/647/134 851/649/134 853/650/134
f 854/651/134 856/652/134 855/653/134
f 854/651/134 855/653/134 857/654/134
f 858/655/106 860/656/106 859/657/106
f 861/658/106 859/657/106 860/656/106
f 862/646/105 864/645/105 863/644/105
f 863/644/105 864/645/105 865/643/105
f 866/659/245 868/660/245 867/661/245
f 866/659/245 867/661/245 869/662/245
f 870/663/245 872/664/245 871/665/245
f 870/663/245 871/665/245 873/666/245
f 874/667/107 876/668/107 875/669/107
f 876/668/107 874/667/107 877/670/107
f 878/671/319 880/672/319 879/673/319
f 880/672/319 878/671/319 881/674/319
f 882/675/320 884/676/321 883/677/322
f 882/675/320 883/677/322 885/678/323
f 886/679/324 884/676/321 882/675/320
f 884/676/321 886/679/324 887/680/304
f 888/681/105 890/682/105 889/683/105
f 890/682/105 888/681/105 891/684/105
f 890/682/105 891/684/105 892/685/105
f 893/620/325 895/619/326 894/617/327
f 895/619/326 893/620/325 896/618/328
f 897/621/329 899/622/330 898/620/331
f 898/620/331 899/622/330 900/618/330
f 901/620/332 903/619/333 902/617/334
f 903/619/333 901/620/332 904/618/333
f 905/621/331 907/622/335 906/620/331
f 906/620/331 907/622/335 908/618/336
f 909/640/105 911/639/105 910/642/105
f 911/639/105 909/640/105 912/641/105
f 913/686/245 915/687/245 914/688/245
f 913/686/245 914/688/245 916/689/245
f 917/690/245 919/691/245 918/692/245
f 917/690/245 918/692/245 920/693/245
f 921/694/245 923/695/245 922/696/245
f 921/694/245 922/696/245 924/697/245
f 925/698/337 927/699/338 926/700/339
f 927/699/338 925/698/337 928/701/340
f 925/698/337 929/702/340 928/701/340
f 928/701/340 929/702/340 930/703/339
f 931/704/341 933/705/342 932/706/343
f 933/705/342 931/704/341 934/707/339
f 931/704/341 935/708/340 934/707/339
f 934/707/339 935/708/340 936/709/339
usemtl Meshpart4Mtl.026
f 937/710/134 939/711/344 938/712/134
f 940/713/344 938/712/134 939/711/344
f 942/714/345 941/715/345 943/716/105
f 941/715/345 944/717/105 943/716/105
f 944/717/105 941/715/345 945/718/105
f 942/714/345 943/716/105 946/719/105
f 947/720/346 949/721/346 948/722/346
f 948/722/346 950/723/346 947/720/346
