# Blender 5.2.0 LTS
# www.blender.org
mtllib gingerbread aug mag.mtl
o gingerbread_aug_mag
v 0.901620 -0.384900 0.071802
v 0.879213 -0.432922 -0.096497
v 0.901620 -0.384900 -0.096497
v 0.879213 -0.432922 0.071802
v 0.893562 -0.342159 -0.082904
v 0.893562 -0.342159 0.058188
v 0.978528 -0.125792 -0.082904
v 0.978528 -0.125792 0.058188
v 1.006679 0.081529 -0.082904
v 1.006679 0.081529 0.058188
v 1.006679 0.081529 -0.082904
v 0.748586 0.150678 -0.082904
v 0.748586 0.150678 0.058188
v 1.006679 0.081529 0.058188
v 0.613470 -0.250539 -0.096497
v 0.613470 -0.250539 0.071802
v 0.651414 -0.229245 -0.082904
v 0.651414 -0.229245 0.058188
v 0.591096 -0.298560 0.071802
v 0.901620 -0.384900 0.071802
v 0.613470 -0.250539 0.071802
v 0.879213 -0.432922 0.071802
v 0.651414 -0.229245 0.058188
v 0.893562 -0.342159 0.058188
v 0.720467 -0.056644 0.058188
v 0.978528 -0.125792 0.058188
v 1.006679 0.081529 0.058188
v 0.748586 0.150678 0.058188
v 0.591096 -0.298560 -0.096497
v 0.591096 -0.298560 0.071802
v 0.613470 -0.250539 -0.096497
v 0.613470 -0.250539 0.071802
v 0.651414 -0.229245 -0.082904
v 0.651414 -0.229245 0.058188
v 0.720467 -0.056644 0.058188
v 0.720467 -0.056644 -0.082904
v 0.748586 0.150678 0.058188
v 0.748586 0.150678 -0.082904
v 0.591096 -0.298560 -0.096497
v 0.879213 -0.432922 -0.096497
v 0.879213 -0.432922 0.071802
v 0.591096 -0.298560 0.071802
v 0.879213 -0.432922 -0.096497
v 0.591096 -0.298560 -0.096497
v 0.901620 -0.384900 -0.096497
v 0.613470 -0.250539 -0.096497
v 0.651414 -0.229245 -0.082904
v 0.893562 -0.342159 -0.082904
v 0.720467 -0.056644 -0.082904
v 0.978528 -0.125792 -0.082904
v 1.006679 0.081529 -0.082904
v 0.748586 0.150678 -0.082904
v 0.993011 -0.051652 -0.089358
v 0.984613 -0.123335 0.064310
v 0.984613 -0.123335 -0.089358
v 0.993011 -0.051651 0.064310
v 1.002498 0.029920 -0.085623
v 0.988354 -0.074357 0.060907
v 0.988354 -0.074357 -0.085623
v 1.002498 0.029920 0.060907
v 0.940107 -0.232247 -0.086640
v 0.904883 -0.321895 0.061945
v 0.904883 -0.321895 -0.086640
v 0.940107 -0.232247 0.061945
v 0.984613 -0.123335 0.064310
v 0.715401 -0.052210 0.064310
v 0.684190 -0.138584 0.064310
v 0.993011 -0.051651 0.064310
v 0.940107 -0.232247 0.061945
v 0.680313 -0.139366 0.061945
v 0.651720 -0.210881 0.061945
v 0.904883 -0.321895 0.061945
v 0.721488 -0.004797 0.060907
v 0.988354 -0.074357 0.060907
v 1.002498 0.029920 0.060907
v 0.735632 0.099481 0.060907
v 0.680313 -0.139366 0.061945
v 0.680313 -0.139366 -0.086640
v 0.651720 -0.210881 -0.086640
v 0.651720 -0.210881 0.061945
v 0.715401 -0.052210 0.064310
v 0.715401 -0.052210 -0.089358
v 0.684190 -0.138584 -0.089358
v 0.684190 -0.138584 0.064310
v 0.735632 0.099481 -0.085623
v 0.721488 -0.004797 -0.085623
v 0.735632 0.099481 0.060907
v 0.721488 -0.004797 0.060907
v 0.715401 -0.052210 -0.089358
v 0.993011 -0.051652 -0.089358
v 0.984613 -0.123335 -0.089358
v 0.684190 -0.138584 -0.089358
v 0.940107 -0.232247 -0.086640
v 0.651720 -0.210881 -0.086640
v 0.680313 -0.139366 -0.086640
v 0.904883 -0.321895 -0.086640
v 1.002498 0.029920 -0.085623
v 0.721488 -0.004797 -0.085623
v 0.735632 0.099481 -0.085623
v 0.988354 -0.074357 -0.085623
vn 0.9920 -0.1260 -0.0000
vn 0.9052 -0.4250 -0.0000
vn 0.9985 -0.0550 -0.0000
vn 0.9697 -0.2444 -0.0000
vn 0.9910 -0.1342 -0.0000
vn 0.9910 -0.1337 -0.0000
vn 0.2588 0.9659 -0.0000
vn -0.7816 0.6238 -0.0000
vn -0.7885 0.6150 -0.0000
vn -0.7884 0.6151 -0.0000
vn -0.0000 -0.0000 1.0000
vn 0.0709 0.1576 0.9850
vn 0.0314 0.0706 0.9970
vn 0.1023 0.2283 0.9682
vn 0.0786 0.1728 0.9818
vn -0.9052 0.4250 -0.0000
vn -0.7818 0.6235 -0.0000
vn -0.9697 0.2444 -0.0000
vn -0.9910 0.1339 -0.0000
vn -0.4249 -0.9052 -0.0000
vn -0.4252 -0.9051 -0.0000
vn -0.0000 -0.0000 -1.0000
vn 0.0709 0.1576 -0.9850
vn 0.0314 0.0707 -0.9970
vn 0.1023 0.2283 -0.9682
vn 0.0785 0.1728 -0.9818
vn 0.9930 -0.1180 -0.0000
vn 0.9930 -0.1182 -0.0000
vn 0.9909 -0.1344 -0.0000
vn 0.9910 -0.1339 -0.0000
vn 0.9317 -0.3632 -0.0000
vn -0.9290 0.3701 -0.0000
vn -0.9290 0.3700 -0.0000
vn -0.9405 0.3398 -0.0000
vn -0.9909 0.1344 -0.0000
vt 33.969101 -45.089600
vt 34.030899 -45.107300
vt 34.030899 -45.089600
vt 33.969101 -45.107300
vt 34.026001 -45.073898
vt 33.973999 -45.073898
vt 34.026001 -44.994400
vt 33.973999 -44.994400
vt 34.026001 -44.918098
vt 33.973999 -44.918098
vt 33.923599 -45.026001
vt 34.018501 -45.026001
vt 34.018501 -44.973999
vt 33.923599 -44.973999
vt 34.068199 -44.969101
vt 34.054199 -45.026001
vt 34.068199 -45.030899
vt 34.054199 -44.973999
vt 33.923599 -45.057899
vt 34.037800 -45.089600
vt 33.931801 -45.040199
vt 34.029499 -45.107300
vt 33.945801 -45.032398
vt 34.034801 -45.073898
vt 33.971199 -44.968899
vt 34.066101 -44.994400
vt 34.076401 -44.918098
vt 33.981499 -44.892700
vt 33.969101 -45.057899
vt 34.030899 -45.057899
vt 33.969101 -45.040199
vt 34.030899 -45.040199
vt 33.973999 -45.032398
vt 34.026001 -45.032398
vt 34.026001 -44.968899
vt 33.973999 -44.968899
vt 34.026001 -44.892700
vt 33.973999 -44.892700
vt 33.923599 -45.030899
vt 34.029499 -45.030899
vt 34.029499 -44.969101
vt 33.923599 -44.969101
vt 33.970501 -45.107300
vt 34.076401 -45.057899
vt 33.962200 -45.089600
vt 34.068199 -45.040199
vt 34.054199 -45.032398
vt 33.965199 -45.073898
vt 34.028801 -44.968899
vt 33.933899 -44.994400
vt 33.923599 -44.918098
vt 34.018501 -44.892700
vt 48.028198 -44.978100
vt 47.971802 -45.004501
vt 48.028198 -45.004501
vt 47.971802 -44.978100
vt 48.026901 -44.948101
vt 47.973099 -44.986500
vt 48.026901 -44.986500
vt 47.973099 -44.948101
vt 48.027302 -45.044498
vt 47.972698 -45.077499
vt 48.027302 -45.077499
vt 47.972698 -45.044498
vt 48.057899 -45.004501
vt 47.958900 -44.978298
vt 47.947498 -45.010101
vt 48.061001 -44.978100
vt 48.041500 -45.044498
vt 47.945999 -45.010399
vt 47.935501 -45.036598
vt 48.028599 -45.077499
vt 47.961201 -44.960899
vt 48.059299 -44.986500
vt 48.064499 -44.948101
vt 47.966400 -44.922501
vt 48.027302 -45.010399
vt 47.972698 -45.010399
vt 47.972698 -45.036598
vt 48.027302 -45.036598
vt 48.028198 -44.978298
vt 47.971802 -44.978298
vt 47.971802 -45.010101
vt 48.028198 -45.010101
vt 47.973099 -44.922501
vt 47.973099 -44.960899
vt 48.026901 -44.922501
vt 48.026901 -44.960899
vt 48.041100 -44.978298
vt 47.938999 -44.978100
vt 47.942101 -45.004501
vt 48.052502 -45.010101
vt 47.958500 -45.044498
vt 48.064499 -45.036598
vt 48.054001 -45.010399
vt 47.971401 -45.077499
vt 47.935501 -44.948101
vt 48.038799 -44.960899
vt 48.033600 -44.922501
vt 47.940701 -44.986500
s 1
usemtl Meshpart1Mtl.004
f 1/1/1 2/2/2 3/3/1
f 2/2/2 1/1/1 4/4/2
f 5/5/3 1/1/1 3/3/1
f 1/1/1 5/5/3 6/6/3
f 7/7/4 6/6/3 5/5/3
f 6/6/3 7/7/4 8/8/4
f 9/9/5 8/8/4 7/7/4
f 8/8/4 9/9/5 10/10/6
f 11/11/7 12/12/7 13/13/7
f 11/11/7 13/13/7 14/14/7
f 16/15/8 17/16/9 15/17/8
f 17/16/9 16/15/8 18/18/10
f 19/19/11 20/20/12 21/21/13
f 20/20/12 19/19/11 22/22/11
f 20/20/12 23/23/14 21/21/13
f 23/23/14 20/20/12 24/24/15
f 24/24/15 25/25/11 23/23/14
f 25/25/11 24/24/15 26/26/11
f 25/25/11 26/26/11 27/27/11
f 25/25/11 27/27/11 28/28/11
f 29/29/16 30/30/16 31/31/17
f 31/31/17 30/30/16 32/32/17
f 33/33/9 34/34/9 35/35/18
f 36/36/18 33/33/9 35/35/18
f 36/36/18 35/35/18 37/37/19
f 38/38/19 36/36/18 37/37/19
f 39/39/20 40/40/20 41/41/20
f 39/39/20 41/41/20 42/42/21
f 43/43/22 44/44/22 45/45/23
f 45/45/23 44/44/22 46/46/24
f 45/45/23 46/46/24 47/47/25
f 47/47/25 48/48/26 45/45/23
f 48/48/26 47/47/25 49/49/22
f 49/49/22 50/50/22 48/48/26
f 49/49/22 51/51/22 50/50/22
f 51/51/22 49/49/22 52/52/22
usemtl Meshpart2Mtl.004
f 53/53/27 54/54/27 55/55/28
f 54/54/27 53/53/27 56/56/28
f 57/57/29 58/58/29 59/59/6
f 58/58/29 57/57/29 60/60/30
f 61/61/31 62/62/31 63/63/31
f 62/62/31 61/61/31 64/64/31
f 65/65/11 66/66/11 67/67/11
f 66/66/11 65/65/11 68/68/11
f 69/69/11 70/70/11 71/71/11
f 71/71/11 72/72/11 69/69/11
f 73/73/11 74/74/11 75/75/11
f 73/73/11 75/75/11 76/76/11
f 77/77/32 78/78/33 79/79/32
f 79/79/32 80/80/33 77/77/32
f 81/81/34 82/82/34 83/83/34
f 83/83/34 84/84/34 81/81/34
f 85/85/19 86/86/35 87/87/35
f 86/86/35 88/88/35 87/87/35
f 89/89/22 90/90/22 91/91/22
f 91/91/22 92/92/22 89/89/22
f 93/93/22 94/94/22 95/95/22
f 94/94/22 93/93/22 96/96/22
f 97/97/22 98/98/22 99/99/22
f 98/98/22 97/97/22 100/100/22
